<svg width="37" height="40" viewBox="0 0 37 40" fill="none" xmlns="http://www.w3.org/2000/svg">
<g clip-path="url(#clip0_17_131)">
<path d="M36.0724 0L32.8666 35.9117L18.457 39.9065L4.08704 35.9174L0.884766 0H36.0724Z" fill="#E44D26"/>
<path d="M18.4785 36.853L30.1221 33.6248L32.8616 2.93671H18.4785V36.853Z" fill="#F16529"/>
<path d="M12.2469 11.747H18.4786V7.34186H7.43262L7.53805 8.52369L8.62074 20.663H18.4786V16.2579H12.6494L12.2469 11.747Z" fill="#EBEBEB"/>
<path d="M13.2394 22.8656H8.81738L9.43453 29.7823L18.4581 32.2873L18.4784 32.2817V27.6986L18.4591 27.7037L13.553 26.379L13.2394 22.8656Z" fill="#EBEBEB"/>
<path d="M18.4639 20.6632H23.8883L23.377 26.3763L18.4639 27.7023V32.2852L27.4946 29.7825L27.5608 29.0382L28.596 17.441L28.7036 16.2581H18.4639V20.6632Z" fill="white"/>
<path d="M18.4639 11.7363V11.747H29.1044L29.1927 10.7569L29.3934 8.52369L29.4988 7.34186H18.4639V11.7363Z" fill="white"/>
</g>
<defs>
<clipPath id="clip0_17_131">
<rect width="35.3103" height="40" fill="white" transform="translate(0.884766)"/>
</clipPath>
</defs>
</svg>
