<?xml version="1.0" encoding="UTF-8"?>
<svg version="1.1" xmlns="http://www.w3.org/2000/svg" width="322" height="392">
<path d="M0 0 C9.22783309 5.10099027 13.39300372 16.43073036 17.66015625 25.5 C18.50477417 27.27443481 18.50477417 27.27443481 19.36645508 29.0847168 C23.76641882 38.34075074 28.07648288 47.63910592 32.37597656 56.94213867 C36.99519498 66.9269986 41.69372113 76.87323802 46.41015625 86.8125 C47.95712222 90.07287352 49.5040401 93.33326982 51.05078125 96.59375 C51.43301849 97.39947952 51.81525574 98.20520905 52.20907593 99.03535461 C56.04273386 107.1199217 59.85374504 115.21507682 63.66015625 123.3125 C69.12791176 134.94291085 74.60740307 146.56769193 80.09765625 158.1875 C87.61908368 174.1073694 95.12015026 190.03675195 102.61376953 205.96972656 C104.60654889 210.20663788 106.60004466 214.44321184 108.59375 218.6796875 C108.9246312 219.38279053 109.25551239 220.08589355 109.59642029 220.81030273 C111.25325635 224.3309249 112.91017143 227.85150988 114.56713867 231.37207031 C117.69818146 238.02481579 120.82853258 244.6778844 123.95672607 251.33197021 C125.43819174 254.48314704 126.92000963 257.63415819 128.40185547 260.78515625 C129.10971433 262.2906071 129.81739965 263.79613955 130.52490234 265.30175781 C131.50444668 267.38627309 132.48458278 269.47050915 133.46484375 271.5546875 C134.02284668 272.74175293 134.58084961 273.92881836 135.15576172 275.15185547 C136.4841921 278.05396514 136.4841921 278.05396514 137.76586914 280.20800781 C139.79484644 285.03658072 139.10022565 290.90846832 139.16015625 296.0625 C139.20978516 297.32964844 139.25941406 298.59679687 139.31054688 299.90234375 C139.40916179 308.83403718 139.40916179 308.83403718 137.35107422 312.26660156 C129.0835672 319.98811824 115.45244171 322.13365538 104.875 325.203125 C103.2044906 325.69194766 101.53411968 326.18124374 99.86387634 326.67097473 C96.28966263 327.71804887 92.7146115 328.76219243 89.13885498 329.8039856 C83.47342649 331.45473484 77.8099781 333.11220005 72.14697266 334.77124023 C71.19050465 335.05143603 70.23403664 335.33163183 69.24858475 335.62031841 C67.29817819 336.19170189 65.34777819 336.76310774 63.39738464 337.3345356 C60.42614675 338.20483254 57.45472857 339.07451162 54.48327637 339.94407654 C34.66180954 345.74611795 14.85839414 351.60863765 -4.94175339 357.48295593 C-8.32137586 358.48555844 -11.70112005 359.48775029 -15.08086872 360.48992729 C-17.50472428 361.208677 -19.92855141 361.92752253 -22.35237122 362.64639282 C-25.4245635 363.55755574 -28.4968245 364.46848639 -31.56913757 365.37924194 C-37.89409931 367.25454438 -44.21863492 369.1311687 -50.53981972 371.01916981 C-52.46334699 371.59356725 -54.38717183 372.1669679 -56.31100464 372.74034119 C-58.62188018 373.4292153 -60.93224357 374.11981095 -63.24197388 374.81251526 C-64.25250824 375.11342575 -65.2630426 375.41433624 -66.30419922 375.72436523 C-67.17446747 375.98467026 -68.04473572 376.24497528 -68.94137573 376.51316833 C-77.26289438 378.79335381 -84.62806301 379.50654486 -92.40234375 375.1875 C-99.14268072 370.60311772 -102.94685931 364.21358582 -107.15234375 357.375 C-108.21390775 355.68197475 -109.27547551 353.98895148 -110.33821106 352.29666138 C-111.38627221 350.6248739 -112.4292516 348.94990412 -113.47216797 347.27490234 C-116.00920168 343.21680364 -118.60364764 339.19811678 -121.21484375 335.1875 C-122.09261485 333.83344154 -122.97022153 332.47927647 -123.84765625 331.125 C-124.69913182 329.8124436 -125.55069364 328.49994315 -126.40234375 327.1875 C-132.72850853 317.43850623 -139.0190863 307.66775985 -145.27734375 297.875 C-156.72515407 279.95671308 -156.72515407 279.95671308 -168.40234375 262.1875 C-171.09258561 246.65803954 -168.98120483 234.0065483 -160.015625 221.23046875 C-159.42604004 220.41755371 -158.83645508 219.60463867 -158.22900391 218.76708984 C-154.93490682 214.11520134 -152.01580867 209.22634857 -149.02734375 204.375 C-147.75001139 202.336416 -146.47136271 200.29865619 -145.19140625 198.26171875 C-141.54451023 192.43394541 -137.96479986 186.56716455 -134.40234375 180.6875 C-129.66935629 172.87913668 -124.87746837 165.11115442 -120.02734375 157.375 C-112.76276988 145.78750969 -105.58816197 134.14616005 -98.43164062 122.49169922 C-95.02883254 116.95108268 -91.62212998 111.41286346 -88.21484375 105.875 C-87.54936523 104.793396 -86.88388672 103.71179199 -86.19824219 102.59741211 C-79.43336575 91.60656965 -72.63807879 80.63466027 -65.83886719 69.66503906 C-64.25553421 67.11022735 -62.67262146 64.55515575 -61.08984375 62 C-60.56253662 61.14913818 -60.03522949 60.29827637 -59.49194336 59.42163086 C-56.45429636 54.51606036 -53.42866055 49.60336572 -50.4140625 44.68359375 C-38.19570659 24.74982659 -38.19570659 24.74982659 -32.15234375 15.375 C-31.50821533 14.37194824 -31.50821533 14.37194824 -30.85107422 13.34863281 C-23.36464959 1.83151956 -14.4549654 -4.88883383 0 0 Z M-6.40234375 48.1875 C-7.59567402 51.08184302 -7.59567402 51.08184302 -8.31103516 54.69702148 C-8.47180353 55.396967 -8.63257191 56.09691252 -8.79821205 56.8180685 C-9.35335094 59.27047224 -9.87932212 61.72805331 -10.40234375 64.1875 C-10.59916496 65.09520771 -10.79598618 66.00291542 -10.99877167 66.93812943 C-12.66469519 74.62796786 -14.26555459 82.33091499 -15.86328125 90.03515625 C-16.40353886 92.62753722 -16.94407859 95.21985783 -17.48498535 97.81210327 C-19.10066118 105.55864743 -20.71108687 113.30627895 -22.32098675 121.05402517 C-24.81825108 133.07077868 -27.31874728 145.08686021 -29.82081842 157.10261369 C-30.31093737 159.45656848 -30.80087334 161.81056131 -31.29079819 164.1645565 C-35.93496897 186.47454887 -40.63783167 208.77151329 -45.38671529 231.05944425 C-46.62935074 236.89224506 -47.86910244 242.72565241 -49.10684204 248.55949402 C-49.27957362 249.37356797 -49.4523052 250.18764192 -49.63027108 251.02638477 C-50.32219045 254.28764701 -51.01401821 257.5489286 -51.70550275 260.81028306 C-53.73692394 270.39101727 -55.77819525 279.969524 -57.83563972 289.54470468 C-59.12755527 295.56140255 -60.40747523 301.5805739 -61.67816377 307.60179019 C-62.41357569 311.08442099 -63.15456486 314.56562517 -63.91035461 318.04389572 C-64.7314421 321.8229935 -65.52679675 325.6072427 -66.31982422 329.39233398 C-66.68550286 331.04498308 -66.68550286 331.04498308 -67.05856895 332.73101902 C-68.25404867 338.55497516 -68.85251016 342.67228735 -66.40234375 348.1875 C-60.22573381 351.27580497 -52.85551169 348.09941478 -46.74609375 346.20703125 C-45.6841832 345.88689056 -44.62227264 345.56674988 -43.52818298 345.23690796 C-41.20841779 344.53637569 -38.88998027 343.83143543 -36.57272339 343.12265015 C-32.18592233 341.78086991 -27.7944255 340.45495064 -23.40253925 339.12992764 C-22.42518456 338.83503995 -22.42518456 338.83503995 -21.42808533 338.53419495 C-20.43883214 338.23574267 -20.43883214 338.23574267 -19.42959404 337.93126106 C-17.38067382 337.31258977 -15.33214687 336.6926311 -13.28370667 336.07237244 C0.88182271 331.78531115 15.07526493 327.593804 29.2708931 323.40769768 C34.60850778 321.83357087 39.94498569 320.2556404 45.28076172 318.67529297 C46.77254227 318.23351017 48.26432287 317.79172753 49.75610352 317.34994507 C50.48535034 317.13398052 51.21459717 316.91801598 51.96594238 316.69550705 C53.05014465 316.37443419 53.05014465 316.37443419 54.15625 316.046875 C54.87302917 315.83460896 55.58980835 315.62234291 56.32830811 315.40364456 C64.46970564 312.99323069 72.61405795 310.59378411 80.76591492 308.21891785 C84.57237597 307.10879116 88.37641133 305.99052872 92.17990112 304.87026978 C93.84918404 304.38101067 95.51966835 303.89582835 97.19143677 303.41513062 C99.4159574 302.77534518 101.63600158 302.12190602 103.85546875 301.46484375 C105.05316895 301.11671631 106.25086914 300.76858887 107.48486328 300.40991211 C111.40474972 298.87054965 114.5158366 297.15846096 116.59008789 293.37939453 C116.60194738 289.94473222 115.14784334 287.16644032 113.71875 284.1171875 C113.40119247 283.41705536 113.08363495 282.71692322 112.75645447 281.99557495 C111.71779233 279.71932023 110.66024725 277.45267482 109.59765625 275.1875 C109.25083801 274.44423462 108.90401978 273.70096924 108.54669189 272.93518066 C106.34341236 268.22241562 104.11037351 263.52426342 101.86514282 258.83135986 C99.76543283 254.44220289 97.67448082 250.04887156 95.58203125 245.65625 C95.15964676 244.77015045 94.73726227 243.8840509 94.30207825 242.97109985 C90.3118891 234.59719451 86.35527568 226.20771415 82.41015625 217.8125 C82.08595703 217.12285156 81.76175781 216.43320313 81.42773438 215.72265625 C79.79965172 212.25933928 78.17207259 208.79578616 76.54492188 205.33203125 C73.25273047 198.32423673 69.95655434 191.31831648 66.66015625 184.3125 C66.33149567 183.61392883 66.00283508 182.91535767 65.66421509 182.19561768 C60.48520372 171.1882567 55.29411009 160.18663596 50.09765625 149.1875 C44.90016988 138.18617852 39.70807869 127.18235647 34.52807617 116.17279053 C33.5403814 114.07360522 32.55242999 111.97454084 31.56445312 109.87548828 C28.50437895 103.37296103 25.44727427 96.86906767 22.39784241 90.36154175 C20.97428936 87.32421733 19.54923451 84.28759863 18.12405396 81.2510376 C17.45621208 79.82703105 16.78908025 78.4026912 16.12277222 76.97796631 C14.28402237 73.04644557 12.430815 69.12237264 10.55810547 65.20690918 C9.88622966 63.79424504 9.22037659 62.37870783 8.55908203 60.96105957 C7.51239852 58.72003113 6.44749077 56.48846551 5.37890625 54.2578125 C5.059823 53.5642868 4.74073975 52.87076111 4.4119873 52.15621948 C2.69376373 48.52706257 2.69376373 48.52706257 -0.38867188 46.12060547 C-3.02964118 46.20833893 -4.22583811 46.65602252 -6.40234375 48.1875 Z " fill="#10384D" transform="translate(183.40234375,1.8125)"/>
<path d="M0 0 C0.33 0 0.66 0 1 0 C1.25 2.75 1.25 2.75 1 6 C-0.875 8.0625 -0.875 8.0625 -3 10 C-4.15521502 12.47130918 -4.15521502 12.47130918 -5 15 C-5.65213539 16.34050052 -6.31379969 17.67661368 -7 19 C-7.66 19 -8.32 19 -9 19 C-9.33 20.65 -9.66 22.3 -10 24 C-10.66 24 -11.32 24 -12 24 C-12.268125 24.639375 -12.53625 25.27875 -12.8125 25.9375 C-14 28 -14 28 -17 29 C-15.575977 25.11505265 -13.74861393 21.76846296 -11.55859375 18.26171875 C-10.89279297 17.19501953 -10.22699219 16.12832031 -9.54101562 15.02929688 C-8.84685547 13.92650391 -8.15269531 12.82371094 -7.4375 11.6875 C-6.7321332 10.55421608 -6.02705219 9.42075423 -5.32226562 8.28710938 C-1.46642222 2.1349635 -1.46642222 2.1349635 0 0 Z " fill="#4A6371" transform="translate(84,126)"/>
<path d="M0 0 C0.99 0.66 1.98 1.32 3 2 C2.67 2.66 2.34 3.32 2 4 C1.34 3.67 0.68 3.34 0 3 C-2.31849369 3.28530132 -2.31849369 3.28530132 -4.875 3.875 C-5.73867187 4.05804687 -6.60234375 4.24109375 -7.4921875 4.4296875 C-8.31976563 4.61789063 -9.14734375 4.80609375 -10 5 C-10.71929687 5.15597656 -11.43859375 5.31195312 -12.1796875 5.47265625 C-14.55126485 6.15970119 -16.10803698 7.44588752 -18 9 C-18.66 8.67 -19.32 8.34 -20 8 C-14.13762805 1.62035993 -8.68913214 -1.27440605 0 0 Z " fill="#244152" transform="translate(177,1)"/>
<path d="M0 0 C1.11572266 3.73242188 1.11572266 3.73242188 0.07421875 6.140625 C-0.61220703 7.18476562 -0.61220703 7.18476562 -1.3125 8.25 C-1.76238281 8.95640625 -2.21226562 9.6628125 -2.67578125 10.390625 C-3.11277344 10.92171875 -3.54976562 11.4528125 -4 12 C-4.66 12 -5.32 12 -6 12 C-6 13.98 -6 15.96 -6 18 C-7.98 18.99 -9.96 19.98 -12 21 C-10.32508169 16.11963459 -7.63208039 12.00847052 -4.875 7.6875 C-4.40707031 6.94693359 -3.93914062 6.20636719 -3.45703125 5.44335938 C-2.30835804 3.62658032 -1.15467631 1.81296963 0 0 Z " fill="#556D7B" transform="translate(139,37)"/>
<path d="M0 0 C-2.64 0.66 -5.28 1.32 -8 2 C-7.67 2.99 -7.34 3.98 -7 5 C-7.85722656 5.06058594 -8.71445313 5.12117188 -9.59765625 5.18359375 C-15.43604873 5.61143536 -21.22057272 6.059163 -27 7 C-22.94322732 4.29548488 -18.70507084 3.20888542 -14.0625 1.8125 C-13.15564453 1.52697266 -12.24878906 1.24144531 -11.31445312 0.94726562 C-10.43853516 0.68236328 -9.56261719 0.41746094 -8.66015625 0.14453125 C-7.86230713 -0.09934326 -7.06445801 -0.34321777 -6.24243164 -0.59448242 C-4 -1 -4 -1 0 0 Z " fill="#5A7380" transform="translate(180,336)"/>
<path d="M0 0 C1.17629657 3.47525916 0.81182496 5.87491481 0.00390625 9.421875 C-0.33930664 10.95908203 -0.33930664 10.95908203 -0.68945312 12.52734375 C-0.93630859 13.59082031 -1.18316406 14.65429688 -1.4375 15.75 C-1.68048828 16.82894531 -1.92347656 17.90789062 -2.17382812 19.01953125 C-2.77456295 21.68161107 -3.38355513 24.34152209 -4 27 C-4.33 27 -4.66 27 -5 27 C-4.85978195 24.35375716 -4.71310224 21.70815422 -4.5625 19.0625 C-4.52318359 18.30775391 -4.48386719 17.55300781 -4.44335938 16.77539062 C-4.11328125 11.11328125 -4.11328125 11.11328125 -3 10 C-2.63239269 7.67182036 -2.29758419 5.3381615 -2 3 C-1.34 3 -0.68 3 0 3 C0 2.01 0 1.02 0 0 Z " fill="#5D7783" transform="translate(153,158)"/>
<path d="M0 0 C1.07365377 3.2209613 0.93405499 4.23714565 0.22265625 7.44921875 C0.03896484 8.29677734 -0.14472656 9.14433594 -0.33398438 10.01757812 C-0.53314453 10.89865234 -0.73230469 11.77972656 -0.9375 12.6875 C-1.13279297 13.58017578 -1.32808594 14.47285156 -1.52929688 15.39257812 C-2.01255202 17.59669306 -2.50302834 19.7989445 -3 22 C-3.33 22 -3.66 22 -4 22 C-5.03855101 15.66859263 -5.47434258 11.66189161 -2 6 C-1.30028027 4.01132287 -0.62335603 2.01391949 0 0 Z " fill="#627885" transform="translate(123,302)"/>
<path d="M0 0 C-1.65 0.33 -3.3 0.66 -5 1 C-5 1.66 -5 2.32 -5 3 C-8.87684087 4.19287411 -11.91621923 5 -16 5 C-16.33 5.66 -16.66 6.32 -17 7 C-17 5.68 -17 4.36 -17 3 C-14.92085336 2.29994051 -12.83648414 1.61537756 -10.75 0.9375 C-9.58984375 0.55464844 -8.4296875 0.17179687 -7.234375 -0.22265625 C-4.19922915 -0.95211763 -2.84296787 -1.11889082 0 0 Z " fill="#506775" transform="translate(288,304)"/>
<path d="M0 0 C0.66 0.99 1.32 1.98 2 3 C1.34 3.66 0.68 4.32 0 5 C-0.71927295 7.31765729 -1.3909893 9.65095874 -2 12 C-3.65 12.33 -5.3 12.66 -7 13 C-5.35821735 8.22390502 -2.73453298 4.20617096 0 0 Z " fill="#445F6E" transform="translate(47,186)"/>
<path d="M0 0 C0.33 0.66 0.66 1.32 1 2 C1.66 2 2.32 2 3 2 C3.33 2.99 3.66 3.98 4 5 C1.77810176 7.22189824 -0.08482708 7.92598892 -3 9 C-3.33 8.01 -3.66 7.02 -4 6 C-2.0625 2.8125 -2.0625 2.8125 0 0 Z " fill="#305064" transform="translate(91,115)"/>
<path d="M0 0 C0.66 1.32 1.32 2.64 2 4 C1.34 4.66 0.68 5.32 0 6 C-0.70710678 7.64991582 -1.37943989 9.31562256 -2 11 C-3.32 11 -4.64 11 -6 11 C-4.54955729 6.89041233 -2.48889248 3.56741255 0 0 Z " fill="#3F5B68" transform="translate(23,225)"/>
<path d="M0 0 C3.3 0 6.6 0 10 0 C5.88881081 3.52387645 2.53491888 6 -3 6 C-3 5.34 -3 4.68 -3 4 C-2.34 3.67 -1.68 3.34 -1 3 C-0.67 2.01 -0.34 1.02 0 0 Z " fill="#425D6B" transform="translate(308,315)"/>
<path d="M0 0 C-1.81817001 2.31459868 -2.75615543 2.95377187 -5.69921875 3.51171875 C-6.68535156 3.56972656 -7.67148438 3.62773437 -8.6875 3.6875 C-9.68136719 3.75324219 -10.67523438 3.81898438 -11.69921875 3.88671875 C-12.45847656 3.92410156 -13.21773437 3.96148437 -14 4 C-14 3.34 -14 2.68 -14 2 C-9.07262981 0.02905192 -5.21979128 -0.1799928 0 0 Z " fill="#3A5564" transform="translate(255,314)"/>
<path d="M0 0 C-3.00440021 2.00293347 -4.70993945 2.49271626 -8.1875 3.125 C-9.08855469 3.29257812 -9.98960937 3.46015625 -10.91796875 3.6328125 C-11.60503906 3.75398438 -12.29210937 3.87515625 -13 4 C-13 3.34 -13 2.68 -13 2 C-12.01 2 -11.02 2 -10 2 C-10 1.34 -10 0.68 -10 0 C-6.7169902 -1.6415049 -3.57454967 -0.51888624 0 0 Z " fill="#506975" transform="translate(213,348)"/>
<path d="M0 0 C0 0.66 0 1.32 0 2 C-1.26839526 2.50615298 -2.53983102 3.00469099 -3.8125 3.5 C-4.87404297 3.91765625 -4.87404297 3.91765625 -5.95703125 4.34375 C-8 5 -8 5 -11 5 C-11 4.01 -11 3.02 -11 2 C-7.17679443 0.57741188 -4.08718695 -0.24042276 0 0 Z " fill="#3C5868" transform="translate(225,322)"/>
<path d="M0 0 C0.66 0 1.32 0 2 0 C2.67154933 1.28913487 3.33708859 2.58140204 4 3.875 C4.37125 4.59429687 4.7425 5.31359375 5.125 6.0546875 C6 8 6 8 6 10 C4.0625 9.3125 4.0625 9.3125 2 8 C1.25 5.375 1.25 5.375 1 3 C0.34 3 -0.32 3 -1 3 C-0.67 2.01 -0.34 1.02 0 0 Z " fill="#3C5766" transform="translate(247,130)"/>
<path d="M0 0 C2.96052484 3.36423277 3.92289822 6.69159287 5 11 C2.5625 9.9375 2.5625 9.9375 0 8 C-0.875 4.375 -0.875 4.375 -1 1 C-0.67 0.67 -0.34 0.34 0 0 Z " fill="#4C6773" transform="translate(197,21)"/>
<path d="M0 0 C1 3 1 3 1 6 C0.34 6 -0.32 6 -1 6 C-1.268125 6.639375 -1.53625 7.27875 -1.8125 7.9375 C-3 10 -3 10 -6 11 C-4.54955729 6.89041233 -2.48889248 3.56741255 0 0 Z " fill="#526978" transform="translate(73,144)"/>
<path d="M0 0 C0.66 0.33 1.32 0.66 2 1 C1.1875 3.4375 1.1875 3.4375 0 6 C-0.99 6.33 -1.98 6.66 -3 7 C-3 7.66 -3 8.32 -3 9 C-3.66 8.67 -4.32 8.34 -5 8 C-2.25 1.125 -2.25 1.125 0 0 Z " fill="#324D5D" transform="translate(78,138)"/>
<path d="M0 0 C1.26950234 3.0006419 0.98068499 4.05184556 -0.1875 7.1875 C-2 10 -2 10 -4.1875 10.875 C-5.0846875 10.936875 -5.0846875 10.936875 -6 11 C-4.54955729 6.89041233 -2.48889248 3.56741255 0 0 Z " fill="#576E7C" transform="translate(39,199)"/>
<path d="M0 0 C1.32 0.33 2.64 0.66 4 1 C4.12375 1.78375 4.2475 2.5675 4.375 3.375 C4.79117993 6.14057822 4.79117993 6.14057822 7 8 C6.67 8.99 6.34 9.98 6 11 C4.9944239 9.54550599 3.99569565 8.08627557 3 6.625 C2.443125 5.81289063 1.88625 5.00078125 1.3125 4.1640625 C0 2 0 2 0 0 Z " fill="#566E7A" transform="translate(64,338)"/>
<path d="M0 0 C2 1 2 1 3.125 3.75 C3.91973395 6.70186896 4.17810598 8.97219837 4 12 C1.03947516 8.63576723 0.07710178 5.30840713 -1 1 C-0.67 0.67 -0.34 0.34 0 0 Z " fill="#546A79" transform="translate(230,140)"/>
<path d="M0 0 C3 2 3 2 5 4 C5.125 6.625 5.125 6.625 5 9 C5.66 9.33 6.32 9.66 7 10 C6.34 10.66 5.68 11.32 5 12 C4.16180842 10.37750059 3.3295884 8.75191503 2.5 7.125 C2.0359375 6.22007812 1.571875 5.31515625 1.09375 4.3828125 C0 2 0 2 0 0 Z " fill="#5F7582" transform="translate(273,235)"/>
<path d="M0 0 C0.33 0.99 0.66 1.98 1 3 C-1.15343189 6.23014784 -2.27059611 7.75686537 -6 9 C-4.68775452 5.06326356 -3.08089673 2.77280706 0 0 Z " fill="#466170" transform="translate(112,83)"/>
<path d="M0 0 C0.33 0.99 0.66 1.98 1 3 C1.99 3.33 2.98 3.66 4 4 C5.1875 6.5625 5.1875 6.5625 6 9 C5.01 9 4.02 9 3 9 C0.75 6.1875 0.75 6.1875 -1 3 C-0.67 2.01 -0.34 1.02 0 0 Z " fill="#566D7A" transform="translate(48,311)"/>
<path d="M0 0 C0.33 0 0.66 0 1 0 C1.3125 2.1875 1.3125 2.1875 1 5 C-1.5 7.8125 -1.5 7.8125 -4 10 C-3.4359146 6.05140217 -2.2568294 3.29120954 0 0 Z " fill="#4A6574" transform="translate(118,71)"/>
<path d="M0 0 C2.64465038 3.1254959 3.84414715 6.08788267 5 10 C4.01 10.495 4.01 10.495 3 11 C0.84694043 7.14243493 -0.39253254 4.44870215 0 0 Z " fill="#4A6571" transform="translate(289,217)"/>
<path d="M0 0 C0.66 0 1.32 0 2 0 C2 1.65 2 3.3 2 5 C0.02 5.99 -1.96 6.98 -4 8 C-2.87548273 5.0280615 -1.77706209 2.66559313 0 0 Z " fill="#4A6572" transform="translate(131,50)"/>
<path d="M0 0 C0.53625 0.37125 1.0725 0.7425 1.625 1.125 C-1.99473402 2.44126692 -4.47067131 3.125 -8.375 3.125 C-8.375 2.465 -8.375 1.805 -8.375 1.125 C-2.95961538 -1.09038462 -2.95961538 -1.09038462 0 0 Z " fill="#516A77" transform="translate(167.375,360.875)"/>
<path d="M0 0 C0.66 0 1.32 0 2 0 C2 0.99 2 1.98 2 3 C2.99 3.33 3.98 3.66 5 4 C5.33 5.65 5.66 7.3 6 9 C5.01 9.495 5.01 9.495 4 10 C2.68 6.7 1.36 3.4 0 0 Z " fill="#5B7784" transform="translate(263,214)"/>
<path d="M0 0 C0.66 0.99 1.32 1.98 2 3 C1 5 1 5 -1 8 C-1.99 8 -2.98 8 -4 8 C-2.87548273 5.0280615 -1.77706209 2.66559313 0 0 Z " fill="#4A6372" transform="translate(52,178)"/>
<path d="M0 0 C1.32 0.33 2.64 0.66 4 1 C4.33 2.98 4.66 4.96 5 7 C4.01 7.495 4.01 7.495 3 8 C0 2.25 0 2.25 0 0 Z " fill="#486572" transform="translate(291,273)"/>
<path d="M0 0 C1.65 0.99 3.3 1.98 5 3 C4.67 4.32 4.34 5.64 4 7 C4.66 7.33 5.32 7.66 6 8 C5.34 8.66 4.68 9.32 4 10 C3.32845067 8.71086513 2.66291141 7.41859796 2 6.125 C1.62875 5.40570313 1.2575 4.68640625 0.875 3.9453125 C0 2 0 2 0 0 Z " fill="#566E7A" transform="translate(234,152)"/>
<path d="M0 0 C1.04449911 3.13349732 0.93423645 3.98968256 0 7 C-1.32 7.33 -2.64 7.66 -4 8 C-2.87548273 5.0280615 -1.77706209 2.66559313 0 0 Z " fill="#526D79" transform="translate(149,21)"/>
<path d="M0 0 C0.66 0.33 1.32 0.66 2 1 C-1.44615385 5.8 -1.44615385 5.8 -4.25 6.8125 C-5.11625 6.9053125 -5.11625 6.9053125 -6 7 C-4.19587357 3.73539027 -3.16605307 2.11070205 0 0 Z " fill="#4B6470" transform="translate(163,3)"/>
<path d="M0 0 C-3.44450737 2.29633824 -5.93812283 2.54016485 -10 3 C-10 2.34 -10 1.68 -10 1 C-6.78548731 -0.60725635 -3.56387464 -0.05748185 0 0 Z " fill="#596E7B" transform="translate(267,332)"/>
<path d="M0 0 C2.34058637 2.12780579 3.70700306 4.11562221 5 7 C4.34 7.66 3.68 8.32 3 9 C0.9375 6.1875 0.9375 6.1875 -1 3 C-0.67 2.01 -0.34 1.02 0 0 Z " fill="#4B6472" transform="translate(34,289)"/>
<path d="M0 0 C2.97 0 5.94 0 9 0 C5.55549263 2.29633824 3.06187717 2.54016485 -1 3 C-0.67 2.01 -0.34 1.02 0 0 Z " fill="#56717C" transform="translate(214,345)"/>
<path d="M0 0 C1.9375 0.6875 1.9375 0.6875 4 2 C4.75 4.625 4.75 4.625 5 7 C4.01 7.495 4.01 7.495 3 8 C0 2.25 0 2.25 0 0 Z " fill="#506A78" transform="translate(250,186)"/>
<path d="M0 0 C1 3 1 3 0.25 5.125 C-1 7 -1 7 -4 8 C-2.87548273 5.0280615 -1.77706209 2.66559313 0 0 Z " fill="#59727F" transform="translate(57,170)"/>
<path d="M0 0 C0.66 0 1.32 0 2 0 C3.06775224 1.96466413 4.06553465 3.96855359 5 6 C4.67 6.66 4.34 7.32 4 8 C3.34 8 2.68 8 2 8 C0.74335022 5.09399739 0 3.20395416 0 0 Z " fill="#4D6775" transform="translate(224,81)"/>
<path d="M0 0 C1.9375 0.6875 1.9375 0.6875 4 2 C4.75 4.625 4.75 4.625 5 7 C3.29115995 5.37660195 1.62553283 3.70680947 0 2 C0 1.34 0 0.68 0 0 Z " fill="#58727E" transform="translate(82,366)"/>
<path d="M0 0 C2.78637633 4.1795645 1.79562512 6.14668677 1 11 C0.67 11 0.34 11 0 11 C-0.19406478 9.35492782 -0.38007935 7.70890406 -0.5625 6.0625 C-0.66691406 5.14597656 -0.77132812 4.22945313 -0.87890625 3.28515625 C-0.91886719 2.53105469 -0.95882812 1.77695312 -1 1 C-0.67 0.67 -0.34 0.34 0 0 Z " fill="#486672" transform="translate(119,313)"/>
<path d="M0 0 C2.15377564 2.62198774 3.40072174 4.64404172 4 8 C2.0625 7.25 2.0625 7.25 0 6 C-0.8125 4 -0.8125 4 -1 2 C-0.67 1.34 -0.34 0.68 0 0 Z " fill="#5E7784" transform="translate(211,51)"/>
<path d="" fill="#FFFFFF" transform="translate(0,0)"/>
<path d="" fill="#FFFFFF" transform="translate(0,0)"/>
<path d="" fill="#FFFFFF" transform="translate(0,0)"/>
<path d="" fill="#FFFFFF" transform="translate(0,0)"/>
<path d="" fill="#FFFFFF" transform="translate(0,0)"/>
<path d="" fill="#FFFFFF" transform="translate(0,0)"/>
<path d="" fill="#FFFFFF" transform="translate(0,0)"/>
<path d="" fill="#FFFFFF" transform="translate(0,0)"/>
<path d="" fill="#FFFFFF" transform="translate(0,0)"/>
<path d="" fill="#FFFFFF" transform="translate(0,0)"/>
<path d="" fill="#FFFFFF" transform="translate(0,0)"/>
<path d="" fill="#FFFFFF" transform="translate(0,0)"/>
<path d="" fill="#FFFFFF" transform="translate(0,0)"/>
<path d="" fill="#FFFFFF" transform="translate(0,0)"/>
<path d="" fill="#FFFFFF" transform="translate(0,0)"/>
<path d="" fill="#FFFFFF" transform="translate(0,0)"/>
<path d="" fill="#FFFFFF" transform="translate(0,0)"/>
<path d="" fill="#FFFFFF" transform="translate(0,0)"/>
<path d="" fill="#FFFFFF" transform="translate(0,0)"/>
<path d="" fill="#FFFFFF" transform="translate(0,0)"/>
<path d="" fill="#FFFFFF" transform="translate(0,0)"/>
<path d="" fill="#FFFFFF" transform="translate(0,0)"/>
<path d="" fill="#FFFFFF" transform="translate(0,0)"/>
<path d="" fill="#FFFFFF" transform="translate(0,0)"/>
<path d="" fill="#FFFFFF" transform="translate(0,0)"/>
<path d="" fill="#FFFFFF" transform="translate(0,0)"/>
<path d="" fill="#FFFFFF" transform="translate(0,0)"/>
<path d="" fill="#FFFFFF" transform="translate(0,0)"/>
<path d="" fill="#FFFFFF" transform="translate(0,0)"/>
<path d="" fill="#FFFFFF" transform="translate(0,0)"/>
<path d="" fill="#FFFFFF" transform="translate(0,0)"/>
<path d="" fill="#FFFFFF" transform="translate(0,0)"/>
<path d="" fill="#FFFFFF" transform="translate(0,0)"/>
<path d="" fill="#FFFFFF" transform="translate(0,0)"/>
<path d="" fill="#FFFFFF" transform="translate(0,0)"/>
<path d="" fill="#FFFFFF" transform="translate(0,0)"/>
<path d="" fill="#FFFFFF" transform="translate(0,0)"/>
<path d="" fill="#FFFFFF" transform="translate(0,0)"/>
<path d="" fill="#FFFFFF" transform="translate(0,0)"/>
<path d="" fill="#FFFFFF" transform="translate(0,0)"/>
<path d="" fill="#FFFFFF" transform="translate(0,0)"/>
<path d="" fill="#FFFFFF" transform="translate(0,0)"/>
<path d="" fill="#FFFFFF" transform="translate(0,0)"/>
<path d="" fill="#FFFFFF" transform="translate(0,0)"/>
<path d="" fill="#FFFFFF" transform="translate(0,0)"/>
<path d="" fill="#FFFFFF" transform="translate(0,0)"/>
<path d="" fill="#FFFFFF" transform="translate(0,0)"/>
<path d="" fill="#FFFFFF" transform="translate(0,0)"/>
<path d="" fill="#FFFFFF" transform="translate(0,0)"/>
<path d="" fill="#FFFFFF" transform="translate(0,0)"/>
<path d="" fill="#FFFFFF" transform="translate(0,0)"/>
<path d="" fill="#FFFFFF" transform="translate(0,0)"/>
<path d="" fill="#FFFFFF" transform="translate(0,0)"/>
<path d="" fill="#FFFFFF" transform="translate(0,0)"/>
<path d="" fill="#FFFFFF" transform="translate(0,0)"/>
<path d="" fill="#FFFFFF" transform="translate(0,0)"/>
<path d="" fill="#FFFFFF" transform="translate(0,0)"/>
<path d="" fill="#FFFFFF" transform="translate(0,0)"/>
<path d="" fill="#FFFFFF" transform="translate(0,0)"/>
<path d="" fill="#FFFFFF" transform="translate(0,0)"/>
</svg>
