<?xml version="1.0" standalone="no"?>
<!DOCTYPE svg PUBLIC "-//W3C//DTD SVG 20010904//EN"
 "http://www.w3.org/TR/2001/REC-SVG-20010904/DTD/svg10.dtd">
<svg version="1.0" xmlns="http://www.w3.org/2000/svg"
 width="453.000000pt" height="550.000000pt" viewBox="0 0 453.000000 550.000000"
 preserveAspectRatio="xMidYMid meet">

<g transform="translate(0.000000,550.000000) scale(0.100000,-0.100000)"
fill="#000000" stroke="none">
<path d="M2275 5486 c-27 -7 -61 -18 -75 -24 -27 -11 -96 -78 -114 -111 -6
-11 -63 -105 -127 -208 -188 -304 -250 -405 -277 -453 -13 -25 -30 -52 -37
-60 -7 -8 -22 -31 -33 -50 -11 -19 -72 -120 -137 -225 -65 -104 -125 -202
-134 -216 -9 -14 -30 -50 -48 -80 -17 -30 -35 -59 -40 -65 -14 -18 -33 -48
-40 -64 -3 -8 -20 -37 -38 -65 -17 -27 -50 -79 -72 -115 -61 -98 -411 -667
-449 -730 -59 -99 -105 -174 -147 -242 -138 -222 -297 -480 -422 -685 -75
-123 -93 -190 -74 -282 6 -33 25 -82 43 -110 62 -100 181 -286 189 -296 4 -5
34 -53 67 -105 32 -52 68 -108 80 -125 11 -16 62 -96 113 -176 94 -149 100
-158 128 -200 9 -13 58 -89 109 -169 51 -80 103 -161 115 -180 12 -19 44 -69
70 -110 148 -233 177 -270 240 -299 101 -47 179 -45 360 9 39 11 108 32 155
46 47 14 121 36 165 50 78 23 181 54 335 99 41 12 102 30 135 39 33 9 69 21
80 25 11 5 65 21 120 36 55 15 116 33 135 41 19 7 55 18 80 24 25 6 90 25 145
42 55 16 132 39 170 50 39 11 104 31 145 43 274 84 396 121 590 176 58 16 139
40 180 53 41 13 102 32 135 41 87 25 215 65 250 77 39 14 122 93 144 138 10
19 23 61 30 92 17 78 2 143 -61 277 -120 252 -138 291 -138 295 0 2 -32 71
-71 152 -100 210 -133 281 -162 344 -14 30 -49 107 -80 170 -30 63 -69 147
-87 185 -18 39 -57 121 -86 183 -30 62 -54 115 -54 117 0 2 -31 68 -69 147
-38 79 -91 193 -119 253 -27 61 -82 177 -121 259 -39 81 -71 150 -71 152 0 2
-34 73 -75 159 -41 85 -75 157 -75 159 0 3 -34 76 -76 163 -42 87 -98 208
-126 268 -28 61 -81 175 -119 253 -38 79 -69 146 -69 148 0 2 -36 79 -80 170
-44 92 -80 168 -80 171 0 2 -24 54 -54 116 -72 150 -123 197 -248 226 -56 13
-59 13 -123 -3z m284 -778 c27 -57 88 -188 136 -293 48 -104 117 -251 152
-325 36 -74 73 -155 83 -180 10 -25 31 -72 48 -105 52 -106 132 -274 132 -278
0 -5 48 -107 164 -350 31 -65 56 -120 56 -121 0 -2 32 -69 70 -150 39 -80 70
-147 70 -150 0 -3 38 -84 85 -181 47 -97 85 -178 85 -180 0 -2 41 -91 91 -197
50 -106 99 -211 109 -233 10 -22 42 -89 70 -150 28 -60 60 -128 70 -150 52
-113 92 -199 134 -288 26 -56 46 -113 46 -132 0 -54 -38 -90 -123 -115 -39
-12 -121 -37 -182 -55 -60 -19 -141 -43 -180 -54 -38 -11 -131 -39 -205 -61
-74 -22 -187 -56 -250 -75 -253 -74 -328 -97 -405 -120 -44 -14 -150 -45 -235
-70 -85 -25 -198 -59 -250 -74 -52 -16 -122 -37 -155 -46 -95 -28 -270 -81
-400 -121 -152 -47 -211 -53 -246 -25 -35 28 -42 68 -24 154 26 125 56 269 76
367 10 52 28 140 40 195 27 129 96 460 114 550 21 104 44 217 71 340 13 61 32
155 43 210 11 55 43 210 71 345 53 257 105 507 139 675 12 55 32 152 46 215
13 63 34 162 45 220 11 58 29 146 40 195 11 50 29 135 41 190 65 318 109 531
114 546 3 9 10 43 15 74 14 89 29 105 96 105 l55 0 48 -102z"/>
</g>
</svg>
