<?xml version="1.0" encoding="UTF-8"?>
<svg version="1.1" xmlns="http://www.w3.org/2000/svg" width="318" height="318">
<path d="M0 0 C104.94 0 209.88 0 318 0 C318 104.94 318 209.88 318 318 C213.06 318 108.12 318 0 318 C0 213.06 0 108.12 0 0 Z M4 4 C4 106.3 4 208.6 4 314 C106.3 314 208.6 314 314 314 C314 211.7 314 109.4 314 4 C211.7 4 109.4 4 4 4 Z " fill="#000000" transform="translate(0,0)"/>
<path d="M0 0 C6.27 0 12.54 0 19 0 C19 6.6 19 13.2 19 20 C17.02 20.33 15.04 20.66 13 21 C11.89181422 24.7488238 10.78922102 28.49927169 9.6875 32.25 C9.37876953 33.29414062 9.07003906 34.33828125 8.75195312 35.4140625 C6.90357121 41.71801768 5.23682101 48.01676587 3.81958008 54.43261719 C2.95039352 57.15539521 1.79705914 58.80492443 0 61 C-0.9364639 63.07978722 -0.9364639 63.07978722 -1.625 65.1875 C-2.90934844 68.90934844 -2.90934844 68.90934844 -4 70 C-4.19397476 71.97854258 -4.38001321 73.9578648 -4.5625 75.9375 C-5.66868756 83.47443466 -8.76913312 87.65673433 -14 93 C-14.42127167 93.57517868 -14.84254333 94.15035736 -15.27658081 94.7429657 C-17.86845126 97.9485677 -19.83993918 99.7572923 -23.9455719 100.61627197 C-27.58562501 100.80972513 -31.16480097 100.78674098 -34.80859375 100.68359375 C-36.14377738 100.67051858 -37.47899486 100.66056347 -38.81422424 100.65357971 C-42.30856998 100.6270022 -45.80084031 100.55837927 -49.29437256 100.48065186 C-52.86718677 100.40871327 -56.44034035 100.37700366 -60.01367188 100.34179688 C-67.00996083 100.26699039 -74.00488047 100.1477084 -81 100 C-83.52834366 71.88919452 -83.52834366 71.88919452 -79.60693359 64.30615234 C-76.10761768 60.23176398 -71.78135019 57.6370157 -67.06933594 55.1484375 C-63.98079066 53.43436046 -61.49704528 51.29473459 -58.8125 49 C-57.99394531 48.34 -57.17539063 47.68 -56.33203125 47 C-53.92350726 44.98917568 -53.92350726 44.98917568 -51.5703125 42.546875 C-48.87347832 39.87463202 -46.07423238 37.56015765 -43.0625 35.25 C-41.56396484 34.08210938 -41.56396484 34.08210938 -40.03515625 32.890625 C-36.83795194 30.89905887 -34.74829844 30.1459699 -31 30 C-30.01 30.66 -29.02 31.32 -28 32 C-28.36504064 37.66442374 -29.0554321 42.00703705 -32 47 C-28.73245735 47 -27.0545935 44.6898288 -24.625 42.625 C-17.01177625 36.1609421 -17.01177625 36.1609421 -11.875 35.75 C-9 36 -9 36 -7 38 C-7.1592486 42.77745788 -7.41500081 45.13970708 -10.125 49.125 C-12.35037679 51.90194606 -12.35037679 51.90194606 -11.75 55.375 C-11.5025 56.24125 -11.255 57.1075 -11 58 C-7.80037608 55.86691739 -7.54058682 55.42902418 -6.4375 52 C-5.53744405 49.23372636 -5.10771027 48.10771027 -3 46 C-2.35023208 43.84128198 -1.78871707 41.65564677 -1.2734375 39.4609375 C-1.12089508 38.82008209 -0.96835266 38.17922668 -0.81118774 37.51895142 C-0.32570553 35.4724941 0.1497501 33.42385513 0.625 31.375 C0.9524672 29.98682383 1.28058435 28.59880081 1.609375 27.2109375 C2.41379842 23.80903622 3.20924633 20.40510794 4 17 C3.37706055 16.69698975 2.75412109 16.39397949 2.11230469 16.08178711 C-0.15602365 14.92009468 -1.51924663 14.08170847 -3 12 C-2.890625 9.58984375 -2.890625 9.58984375 -2.25 6.9375 C-2.04890625 6.05964844 -1.8478125 5.18179688 -1.640625 4.27734375 C-1 2 -1 2 0 0 Z " fill="#FED158" transform="translate(189,51)"/>
<path d="M0 0 C1.2890625 1.64453125 1.2890625 1.64453125 2.625 3.8125 C3.07101563 4.52019531 3.51703125 5.22789063 3.9765625 5.95703125 C5 8 5 8 5 11 C2.73120117 12.71069336 2.73120117 12.71069336 -0.45703125 14.58984375 C-1.0278392 14.93089142 -1.59864716 15.27193909 -2.18675232 15.62332153 C-4.05633404 16.73791172 -5.93433671 17.83744398 -7.8125 18.9375 C-9.73529017 20.07984952 -11.65568315 21.2261553 -13.57595825 22.37272644 C-14.86353139 23.14122468 -16.1518449 23.9084838 -17.44088745 24.67451477 C-23.10370812 28.04349746 -28.69097824 31.52484142 -34.25 35.0625 C-35.04639893 35.56837646 -35.84279785 36.07425293 -36.66333008 36.59545898 C-38.44365005 37.72806133 -40.2220863 38.86362412 -42 40 C-34.91977082 45.2915397 -27.43964316 49.78339362 -19.84570312 54.28710938 C-11.41737713 59.30382022 -3.19251585 64.60906988 5 70 C3.6062718 74.43458973 1.39417765 76.87378374 -2 80 C-12.82923165 73.56965911 -23.6564082 67.13201548 -34.23095703 60.28759766 C-37.85648437 57.94383014 -41.46058827 55.71468166 -45.30078125 53.73828125 C-45.96029785 53.37822998 -46.61981445 53.01817871 -47.29931641 52.6472168 C-49.04893965 51.70001321 -50.82635293 50.80463705 -52.60546875 49.9140625 C-56.13033489 45.62442116 -56.17004872 41.90860935 -55.92456055 36.45898438 C-54.79669883 32.23940559 -53.59527646 31.07506101 -50.05078125 28.58984375 C-47.83377105 27.32020509 -45.58493533 26.10504196 -43.3125 24.9375 C-42.12618677 24.27856444 -40.94292988 23.61409822 -39.76269531 22.94433594 C-37.36040484 21.58732905 -34.9464508 20.25619012 -32.52001953 18.94287109 C-27.29875931 16.09346873 -22.28268766 12.91684427 -17.25 9.75 C-15.58886513 8.72343473 -13.92742844 7.69735763 -12.265625 6.671875 C-9.64921526 5.05066406 -7.08154391 3.38645847 -4.546875 1.640625 C-2 0 -2 0 0 0 Z " fill="#000000" transform="translate(90,67)"/>
<path d="M0 0 C8.65790762 4.8021021 17.13063799 9.83429336 25.43408203 15.22802734 C29.83155488 18.07054391 34.25703055 20.71123185 38.8828125 23.16796875 C53.54722463 31.12163066 53.54722463 31.12163066 56.09375 36.44140625 C56.67037852 39.83668604 56.75525443 42.08437416 55.27490234 45.23828125 C50.5726894 51.73601556 42.11776376 55.38233853 35.26953125 59.15869141 C29.72312663 62.28227143 24.37711243 65.72112841 19 69.125 C17.02146572 70.35778635 15.04233575 71.58961738 13.0625 72.8203125 C9.33005482 75.15172654 5.64059449 77.52783955 2 80 C-2.20390632 78.49860488 -3.89110738 75.82724957 -6 72 C-4.71341538 68.14024614 -3.33195621 67.69971974 0.1171875 65.62890625 C1.1911377 64.97744629 2.26508789 64.32598633 3.37158203 63.65478516 C3.94378479 63.31312317 4.51598755 62.97146118 5.10552979 62.6194458 C6.87990641 61.55956929 8.64756575 60.4892814 10.41357422 59.41552734 C12.79537801 57.96782901 15.17903539 56.52327851 17.56445312 55.08154297 C22.43999319 52.13126592 27.29047255 49.14198276 32.125 46.125 C32.92921387 45.63201416 33.73342773 45.13902832 34.56201172 44.63110352 C36.40997809 43.47535403 38.21135502 42.2455865 40 41 C40 40.34 40 39.68 40 39 C37.60701227 37.26677505 37.60701227 37.26677505 34.5078125 35.47265625 C33.93427032 35.12745941 33.36072815 34.78226257 32.76980591 34.42660522 C30.89216274 33.29847926 29.00865562 32.18055246 27.125 31.0625 C25.84297005 30.29445921 24.56139504 29.52565852 23.28027344 28.75610352 C20.72213413 27.22018646 18.16209855 25.68751052 15.60058594 24.15722656 C10.79676223 21.28382537 6.021522 18.36414618 1.25 15.4375 C-0.1822394 14.5611125 -1.61452485 13.68480024 -3.046875 12.80859375 C-4.02140625 12.21175781 -4.9959375 11.61492187 -6 11 C-5.28839233 7.85635166 -4.38003448 5.84004598 -2.4375 3.25 C-1.98246094 2.63640625 -1.52742187 2.0228125 -1.05859375 1.390625 C-0.70925781 0.93171875 -0.35992187 0.4728125 0 0 Z " fill="#000000" transform="translate(227,66)"/>
<path d="M0 0 C0.66 0 1.32 0 2 0 C2.07716939 2.70092873 2.0496672 4.83858161 1.25 7.4375 C0.87898788 11.24037423 2.74850897 13.06623897 5 16 C3.68902344 15.60167969 3.68902344 15.60167969 2.3515625 15.1953125 C-1.13082289 14.63881471 -1.13082289 14.63881471 -3.8515625 17.0546875 C-4.76679688 17.98539063 -5.68203125 18.91609375 -6.625 19.875 C-11.68539057 24.96374009 -11.68539057 24.96374009 -16 26 C-17.13079467 27.8548804 -17.13079467 27.8548804 -18 30 C-22.8693647 36.59237067 -29.16557144 41.97958346 -35.20703125 47.4609375 C-36.83519158 48.94108326 -38.44408587 50.44408587 -40 52 C-42.625 52.125 -42.625 52.125 -45 52 C-47.07773594 22.6826132 -47.07773594 22.6826132 -42.71484375 17.03125 C-39.60317972 14.55797898 -36.53475821 12.80602146 -33 11 C-30.86274383 9.38527035 -28.89520653 7.64100836 -26.875 5.875 C-22.24913495 2 -22.24913495 2 -20 2 C-19.4225 2.99 -18.845 3.98 -18.25 5 C-16.31749367 8.19348285 -16.31749367 8.19348285 -13.3125 8.8125 C-7.97994342 7.50451442 -3.85202942 3.85202942 0 0 Z " fill="#FABB31" transform="translate(153,99)"/>
<path d="M0 0 C6.27 0 12.54 0 19 0 C19 6.6 19 13.2 19 20 C16.03 20.495 16.03 20.495 13 21 C11.89181422 24.7488238 10.78922102 28.49927169 9.6875 32.25 C9.37876953 33.29414062 9.07003906 34.33828125 8.75195312 35.4140625 C6.90357121 41.71801768 5.23682101 48.01676587 3.81958008 54.43261719 C2.94804058 57.16276593 1.75217798 58.76298067 0 61 C-0.391875 62.2375 -0.78375 63.475 -1.1875 64.75 C-3.82352823 72.12264146 -10.56672086 77.38063603 -17.1796875 81.21875 C-19 82 -19 82 -21.8125 82.0625 C-24.57442372 80.7209942 -25.65054176 79.77388639 -27 77 C-27.25 74.25 -27.25 74.25 -26 71 C-22.37642491 67.16158845 -18.38649686 63.92433124 -14 61 C-13.26393501 57.43230448 -13.26393501 57.43230448 -13 54 C-12.34 55.32 -11.68 56.64 -11 58 C-7.80037608 55.86691739 -7.54058682 55.42902418 -6.4375 52 C-5.53744405 49.23372636 -5.10771027 48.10771027 -3 46 C-2.35023208 43.84128198 -1.78871707 41.65564677 -1.2734375 39.4609375 C-1.12089508 38.82008209 -0.96835266 38.17922668 -0.81118774 37.51895142 C-0.32570553 35.4724941 0.1497501 33.42385513 0.625 31.375 C0.9524672 29.98682383 1.28058435 28.59880081 1.609375 27.2109375 C2.41379842 23.80903622 3.20924633 20.40510794 4 17 C3.37706055 16.69698975 2.75412109 16.39397949 2.11230469 16.08178711 C-0.15602365 14.92009468 -1.51924663 14.08170847 -3 12 C-2.890625 9.58984375 -2.890625 9.58984375 -2.25 6.9375 C-2.04890625 6.05964844 -1.8478125 5.18179688 -1.640625 4.27734375 C-1 2 -1 2 0 0 Z " fill="#BD5085" transform="translate(189,51)"/>
<path d="M0 0 C0.495 0.495 0.495 0.495 1 1 C0.95277358 6.60813728 -0.12825092 11.13051244 -3 16 C0.26754265 16 1.9454065 13.6898288 4.375 11.625 C11.98822375 5.1609421 11.98822375 5.1609421 17.125 4.75 C20 5 20 5 22 7 C21.77272918 13.81812448 20.17205578 17.90910556 15.16796875 22.78515625 C5.41933344 31.56451998 5.41933344 31.56451998 -0.125 32.5625 C-3 32 -3 32 -5.4375 29.8125 C-7 27 -7 27 -6.8125 24.5 C-6.544375 23.675 -6.27625 22.85 -6 22 C-5.65490835 20.3357282 -5.31994689 18.66928813 -5 17 C-5.79664063 17.6496875 -6.59328125 18.299375 -7.4140625 18.96875 C-8.48377533 19.81326013 -9.55412174 20.65696818 -10.625 21.5 C-11.14707031 21.92925781 -11.66914063 22.35851562 -12.20703125 22.80078125 C-14.93585512 24.92319982 -16.79923502 25.97345655 -20.25 26.4296875 C-23 26 -23 26 -25.375 23.625 C-27 21 -27 21 -27 19 C-32.71779646 23.14820528 -38.11063219 27.57487234 -43.43041992 32.21606445 C-46.1488006 34.5591846 -48.67162517 36.61048429 -52 38 C-50.63955186 33.91865557 -47.81894884 32.30278281 -44.5 29.8125 C-38.78033037 25.42524517 -33.32317034 20.86481516 -28 16 C-8.4373516 -1.79518119 -8.4373516 -1.79518119 0 0 Z " fill="#D16BA8" transform="translate(160,82)"/>
<path d="M0 0 C0.495 0.99 0.99 1.98 1.5 3 C3.62582176 6.21909123 3.62582176 6.21909123 6.484375 6.3984375 C9.01261897 6.3770117 11.48553773 6.25912397 14 6 C12.61116142 11.24672354 9.27445811 13.96141782 5 17 C3.35636866 17.72159424 1.68949614 18.39351421 0 19 C-3.81722512 21.3370766 -6.89866716 23.79172465 -10 27 C-13 29 -13 29 -16 29 C-16 29.66 -16 30.32 -16 31 C-20.38461538 34 -20.38461538 34 -23 34 C-23 34.66 -23 35.32 -23 36 C-23.66 36 -24.32 36 -25 36 C-26.82571979 21.42805128 -26.82571979 21.42805128 -22.71484375 15.9609375 C-20.10602691 13.84022187 -17.51360416 11.94397446 -14.68994141 10.13378906 C-11.89905524 8.26137135 -9.42788427 6.05932217 -6.875 3.875 C-2.24913495 0 -2.24913495 0 0 0 Z " fill="#FED150" transform="translate(133,101)"/>
<path d="M0 0 C-0.75 7.75 -0.75 7.75 -3 10 C-3.30421875 10.77794922 -3.6084375 11.55589844 -3.921875 12.35742188 C-5.84287298 17.06595497 -8.70720401 20.28058173 -13 23 C-17.71476831 23.94873865 -22.21545871 23.76272032 -27 23.5 C-28.25167969 23.46390625 -29.50335938 23.4278125 -30.79296875 23.390625 C-33.86518432 23.29681689 -36.93096213 23.16568726 -40 23 C-36.18759827 19.13026892 -32.25364482 15.4207575 -28.25 11.75 C-24.57683477 8.42519445 -24.57683477 8.42519445 -21 5 C-19.31148638 5.05935022 -17.62397042 5.14793026 -15.9375 5.25 C-10.65281492 5.3325732 -7.74899529 4.23001726 -3.55859375 1.09375 C-2 0 -2 0 0 0 Z " fill="#FED15D" transform="translate(181,128)"/>
<path d="M0 0 C0.33 0 0.66 0 1 0 C1.54384546 6.66210686 0.85510676 10.49270463 -3 16 C-4.75 17.9375 -4.75 17.9375 -6 19 C-5.29666462 16.02277453 -4.41751463 13.14743457 -3.4375 10.25 C-3.16808594 9.45078125 -2.89867187 8.6515625 -2.62109375 7.828125 C-2.41613281 7.22484375 -2.21117187 6.6215625 -2 6 C-2.59425781 6.433125 -3.18851563 6.86625 -3.80078125 7.3125 C-8.59150817 10.53115324 -11.71007468 12.38286348 -17.5625 11.8125 C-21.05506726 11.60157248 -22.47632595 11.62033631 -25.34375 13.69921875 C-27.6355391 16.07573949 -29.8278983 18.51376719 -32 21 C-36.28095652 25.66386856 -39.91574665 29.05546017 -46.4140625 29.49609375 C-50.63234963 29.57981079 -54.79723916 29.35104267 -59 29 C-55.96691787 21.49270279 -46.99875633 16.49937816 -40 13 C-38.35608236 12.39064008 -36.71009256 11.78685255 -35.0625 11.1875 C-29.72650088 9.15279283 -26.01512932 5.99269843 -22 2 C-21.56107422 2.91845703 -21.56107422 2.91845703 -21.11328125 3.85546875 C-19.73039618 6.51934209 -18.38134565 8.16296193 -16 10 C-11.84384954 9.6813618 -9.4947664 8.16126084 -6.3125 5.5625 C-5.54550781 4.94503906 -4.77851563 4.32757813 -3.98828125 3.69140625 C-1.94857722 2.00218929 -1.94857722 2.00218929 0 0 Z " fill="#FEC434" transform="translate(183,122)"/>
<path d="M0 0 C6.27 0 12.54 0 19 0 C19 4.29 19 8.58 19 13 C18.34 13 17.68 13 17 13 C16.34 14.65 15.68 16.3 15 18 C13.35 18 11.7 18 10 18 C9.89042969 18.68964844 9.78085938 19.37929687 9.66796875 20.08984375 C8.74204241 25.57765106 7.53278469 30.67988383 5.6640625 35.91796875 C4.70361103 38.9292666 4.33382432 41.86205143 4 45 C2.68 45 1.36 45 0 45 C0.14493896 44.28884033 0.28987793 43.57768066 0.43920898 42.8449707 C0.98778058 40.06199083 1.48862664 37.27534941 1.97265625 34.48046875 C2.23852539 32.9480957 2.23852539 32.9480957 2.50976562 31.38476562 C2.69216797 30.32966797 2.87457031 29.27457031 3.0625 28.1875 C3.24876953 27.11306641 3.43503906 26.03863281 3.62695312 24.93164062 C4.08520858 22.28785915 4.5428713 19.64397649 5 17 C4.38898438 16.86464844 3.77796875 16.72929688 3.1484375 16.58984375 C-0.07327304 15.70533776 -1.19520484 14.84602314 -3 12 C-2.72409312 7.83447899 -1.87254219 3.74508437 0 0 Z " fill="#CD6AA7" transform="translate(189,51)"/>
<path d="M0 0 C1.66666667 -0.33333333 3.33333333 -0.66666667 5 -1 C7 1 7 1 7.22705078 2.87939453 C7.21657715 3.62302246 7.20610352 4.36665039 7.1953125 5.1328125 C7.18886719 5.93847656 7.18242188 6.74414062 7.17578125 7.57421875 C7.15902344 8.41597656 7.14226562 9.25773437 7.125 10.125 C7.11597656 10.97449219 7.10695313 11.82398438 7.09765625 12.69921875 C7.07405647 14.79959884 7.03818483 16.89983444 7 19 C5.68 19 4.36 19 3 19 C3 13.72 3 8.44 3 3 C2.01 3.495 2.01 3.495 1 4 C0.68758629 6.54941373 0.48696579 9.00361513 0.375 11.5625 C0.31699219 12.62887695 0.31699219 12.62887695 0.2578125 13.71679688 C0.16328217 15.47742425 0.08054183 17.23867728 0 19 C-1.32 19 -2.64 19 -4 19 C-4 13.72 -4 8.44 -4 3 C-4.99 3.33 -5.98 3.66 -7 4 C-7.33 8.95 -7.66 13.9 -8 19 C-9.32 19 -10.64 19 -12 19 C-12 12.73 -12 6.46 -12 0 C-7.24836562 -0.95032688 -4.66719377 -0.66674197 0 0 Z " fill="#000000" transform="translate(90,261)"/>
<path d="M0 0 C2.8998313 3.02410979 3.45406123 5.29726863 3.5 9.4375 C3.37785407 13.40458743 3.12262532 14.80677223 0.9375 18.25 C-2 20 -2 20 -5.8125 19.8125 C-6.864375 19.544375 -7.91625 19.27625 -9 19 C-9 21.64 -9 24.28 -9 27 C-10.32 27 -11.64 27 -13 27 C-13 18.09 -13 9.18 -13 0 C-4.23703704 -1.25185185 -4.23703704 -1.25185185 0 0 Z M-7 3 C-9.18939909 4.78107249 -9.18939909 4.78107249 -9.265625 7.09375 C-9.26046875 7.8878125 -9.2553125 8.681875 -9.25 9.5 C-9.25515625 10.2940625 -9.2603125 11.088125 -9.265625 11.90625 C-9.18939909 14.21892751 -9.18939909 14.21892751 -7 16 C-4.42459787 15.83492354 -4.42459787 15.83492354 -2 15 C-0.88554502 12.77109005 -0.83519714 11.46944894 -0.8125 9 C-0.79832031 8.29875 -0.78414062 7.5975 -0.76953125 6.875 C-0.83487677 4.75475062 -0.83487677 4.75475062 -3 3 C-4.32 3 -5.64 3 -7 3 Z " fill="#000000" transform="translate(115,261)"/>
<path d="M0 0 C1.32 0 2.64 0 4 0 C4 8.91 4 17.82 4 27 C-6 28 -6 28 -9.0625 26.75 C-11.39338059 24.6446885 -11.88554072 23.00198779 -12.23828125 19.9140625 C-12.36719297 15.93815361 -12.30425704 13.5617053 -10.375 10 C-7.52271521 7.59807597 -5.69483996 7.16064522 -2 7 C-1.34 7.33 -0.68 7.66 0 8 C0 5.36 0 2.72 0 0 Z M-6 11 C-8.00519881 13.83086891 -8.08216415 15.85677377 -7.6875 19.1875 C-7.41472529 22.77540665 -7.41472529 22.77540665 -6 24 C-3.5 24.16666667 -3.5 24.16666667 -1 24 C0.27870382 22.94399622 0.27870382 22.94399622 0.1328125 20.53125 C0.12894531 19.03078125 0.12894531 19.03078125 0.125 17.5 C0.12757813 16.4996875 0.13015625 15.499375 0.1328125 14.46875 C0.27870382 12.05600378 0.27870382 12.05600378 -1 11 C-2.66617115 10.95936168 -4.33388095 10.957279 -6 11 Z " fill="#000000" transform="translate(158,207)"/>
<path d="M0 0 C0.556875 0.99 1.11375 1.98 1.6875 3 C2.450625 3.99 3.21375 4.98 4 6 C7.66857722 6.50125283 7.66857722 6.50125283 11 6 C11 6.66 11 7.32 11 8 C10.25878906 7.814375 9.51757812 7.62875 8.75390625 7.4375 C3.71266086 6.74641128 0.0640547 6.59432346 -4.1875 9.48974609 C-8.8044165 13.38226359 -12.96924096 17.7094687 -17.12060547 22.08740234 C-19.59850917 24.60908299 -22.23224063 26.80398435 -25 29 C-25.8205803 25.42895608 -25.93992946 22.5600437 -25 19 C-21.9417189 15.55485941 -18.40943562 12.92193292 -14.68994141 10.24658203 C-11.97850562 8.24649664 -9.44661368 6.05150482 -6.875 3.875 C-2.24913495 0 -2.24913495 0 0 0 Z " fill="#FDC133" transform="translate(133,101)"/>
<path d="M0 0 C-0.42698641 4.81640666 -2.28143626 6.64599422 -5.875 9.75 C-6.75929687 10.52859375 -7.64359375 11.3071875 -8.5546875 12.109375 C-11 14 -11 14 -14 15 C-19.55555556 13.44444444 -19.55555556 13.44444444 -21 12 C-21.15985683 8.00357934 -20.8467023 6.04857808 -18.3125 2.91015625 C-12.1425081 -2.6538543 -7.69237224 -2.51619653 0 0 Z " fill="#CF69A3" transform="translate(185,117)"/>
<path d="M0 0 C0.66 0 1.32 0 2 0 C2 2.31 2 4.62 2 7 C0.02 7.33 -1.96 7.66 -4 8 C-5.10818578 11.7488238 -6.21077898 15.49927169 -7.3125 19.25 C-7.62123047 20.29414062 -7.92996094 21.33828125 -8.24804688 22.4140625 C-10.12483088 28.81488375 -11.8145077 35.21682333 -13.27807617 41.72558594 C-13.51631104 42.47614258 -13.7545459 43.22669922 -14 44 C-14.99 44.495 -14.99 44.495 -16 45 C-15.34 41.7 -14.68 38.4 -14 35 C-15.65 35 -17.3 35 -19 35 C-20.52299523 37.93720508 -21.80100302 40.9168649 -23 44 C-23.66 43.67 -24.32 43.34 -25 43 C-24.54857119 41.70590408 -24.08858979 40.41478941 -23.625 39.125 C-23.36976563 38.40570313 -23.11453125 37.68640625 -22.8515625 36.9453125 C-22 35 -22 35 -20 33 C-19.35023208 30.84128198 -18.78871707 28.65564677 -18.2734375 26.4609375 C-18.12089508 25.82008209 -17.96835266 25.17922668 -17.81118774 24.51895142 C-17.32570553 22.4724941 -16.8502499 20.42385513 -16.375 18.375 C-16.0475328 16.98682383 -15.71941565 15.59880081 -15.390625 14.2109375 C-14.58620158 10.80903622 -13.79075367 7.40510794 -13 4 C-12.67 4 -12.34 4 -12 4 C-11.5149789 11.92201136 -13.33575075 19.29961355 -15 27 C-15.33671845 28.66598607 -15.67157366 30.33235944 -16 32 C-15.34 32 -14.68 32 -14 32 C-13.89042969 31.2265625 -13.78085938 30.453125 -13.66796875 29.65625 C-12.70967943 23.36114616 -11.39482388 17.88727537 -9 12 C-8.27650935 9.67861589 -7.6357895 7.34753047 -7 5 C-5.35 5 -3.7 5 -2 5 C-1.34 3.35 -0.68 1.7 0 0 Z " fill="#9B386C" transform="translate(206,64)"/>
<path d="M0 0 C1.9375 1.625 1.9375 1.625 3 4 C3.1875 7.75 3.1875 7.75 3 11 C-0.96 11 -4.92 11 -9 11 C-8.34 12.32 -7.68 13.64 -7 15 C-4.03 15 -1.06 15 2 15 C1.67 16.32 1.34 17.64 1 19 C-5.9984985 20.3048048 -5.9984985 20.3048048 -9.875 19.125 C-13.10366735 15.89633265 -13.83556564 12.50699632 -14 8 C-13.30179098 4.50236803 -12.01045946 1.86610811 -9.25 -0.5 C-5.87191863 -1.25068475 -3.33672459 -0.84934808 0 0 Z M-7 3 C-7.66 3.66 -8.32 4.32 -9 5 C-9 5.99 -9 6.98 -9 8 C-6.36 8 -3.72 8 -1 8 C-1.33 6.68 -1.66 5.36 -2 4 C-4.39719432 3.32041397 -4.39719432 3.32041397 -7 3 Z " fill="#000000" transform="translate(180,261)"/>
<path d="M0 0 C1.9375 1.625 1.9375 1.625 3 4 C3.1875 7.75 3.1875 7.75 3 11 C-0.96 11 -4.92 11 -9 11 C-8.34 12.32 -7.68 13.64 -7 15 C-4.03 15 -1.06 15 2 15 C1.67 16.32 1.34 17.64 1 19 C-5.9984985 20.3048048 -5.9984985 20.3048048 -9.875 19.125 C-13.10366735 15.89633265 -13.83556564 12.50699632 -14 8 C-13.30179098 4.50236803 -12.01045946 1.86610811 -9.25 -0.5 C-5.87191863 -1.25068475 -3.33672459 -0.84934808 0 0 Z M-7 3 C-7.66 3.66 -8.32 4.32 -9 5 C-9 5.99 -9 6.98 -9 8 C-6.36 8 -3.72 8 -1 8 C-1.33 6.68 -1.66 5.36 -2 4 C-4.39719432 3.32041397 -4.39719432 3.32041397 -7 3 Z " fill="#000000" transform="translate(138,215)"/>
<path d="M0 0 C4.29 0 8.58 0 13 0 C12.67 3.96 12.34 7.92 12 12 C11.34 12 10.68 12 10 12 C10 13.65 10 15.3 10 17 C8.35369672 16.85957123 6.70795821 16.71250671 5.0625 16.5625 C3.68771484 16.44068359 3.68771484 16.44068359 2.28515625 16.31640625 C0 16 0 16 -1 15 C-1.09952878 13.41924873 -1.12968602 11.83387455 -1.125 10.25 C-1.12757813 9.38890625 -1.13015625 8.5278125 -1.1328125 7.640625 C-1 5 -1 5 0 0 Z " fill="#FEA8DD" transform="translate(192,51)"/>
<path d="M0 0 C2.18282816 2.20803403 2.93552688 3.5701792 3.3984375 6.65625 C3.39070313 7.5946875 3.38296875 8.533125 3.375 9.5 C3.38273437 10.4384375 3.39046875 11.376875 3.3984375 12.34375 C2.93566894 15.42887373 2.17650496 16.7882276 0 19 C-3.88245475 20.07845965 -6.0710119 20.39223942 -9.8125 18.8125 C-12.16507493 16.86322363 -13.11215619 15.90567066 -14 13 C-14.45208548 8.02705971 -14.15736025 4.94670031 -11 1 C-7.45260296 -1.78724053 -4.20278462 -1.06979972 0 0 Z M-7 3 C-9.42520546 5.42520546 -9.68564441 6.62067741 -10 10 C-9.52269471 12.7774903 -9.52269471 12.7774903 -8 15 C-5.45224694 15.89386164 -5.45224694 15.89386164 -3 16 C-0.54188375 12.31282562 -0.68881836 10.35654296 -1 6 C-1.66 5.01 -2.32 4.02 -3 3 C-4.32 3 -5.64 3 -7 3 Z " fill="#000000" transform="translate(137,261)"/>
<path d="M0 0 C2.18282816 2.20803403 2.93552688 3.5701792 3.3984375 6.65625 C3.39070313 7.5946875 3.38296875 8.533125 3.375 9.5 C3.38273437 10.4384375 3.39046875 11.376875 3.3984375 12.34375 C2.93566894 15.42887373 2.17650496 16.7882276 0 19 C-3.88245475 20.07845965 -6.0710119 20.39223942 -9.8125 18.8125 C-12.16507493 16.86322363 -13.11215619 15.90567066 -14 13 C-14.45208548 8.02705971 -14.15736025 4.94670031 -11 1 C-7.45260296 -1.78724053 -4.20278462 -1.06979972 0 0 Z M-7 3 C-9.42520546 5.42520546 -9.68564441 6.62067741 -10 10 C-9.52269471 12.7774903 -9.52269471 12.7774903 -8 15 C-5.45224694 15.89386164 -5.45224694 15.89386164 -3 16 C-0.54188375 12.31282562 -0.68881836 10.35654296 -1 6 C-1.66 5.01 -2.32 4.02 -3 3 C-4.32 3 -5.64 3 -7 3 Z " fill="#000000" transform="translate(71,261)"/>
<path d="M0 0 C2.475 0.495 2.475 0.495 5 1 C6.32 4.96 7.64 8.92 9 13 C10.32 8.71 11.64 4.42 13 0 C14.65 0 16.3 0 18 0 C16.9342724 3.40161199 15.84435483 6.79500004 14.75 10.1875 C14.44964844 11.14720703 14.14929688 12.10691406 13.83984375 13.09570312 C12.22399822 18.06356863 10.84763688 22.27648044 7 26 C4.25 26.8125 4.25 26.8125 2 27 C2 25.68 2 24.36 2 23 C3.32 22.34 4.64 21.68 6 21 C4.59086284 16.12298629 3.16243252 11.29304172 1.3125 6.5625 C0 3 0 3 0 0 Z " fill="#000000" transform="translate(80,215)"/>
<path d="M0 0 C0.79921875 0.11085938 1.5984375 0.22171875 2.421875 0.3359375 C3.32679688 0.47902344 3.32679688 0.47902344 4.25 0.625 C4.25 1.945 4.25 3.265 4.25 4.625 C1.28 4.625 -1.69 4.625 -4.75 4.625 C-3.15836765 7.8082647 -0.00175164 8.21690365 3.21875 9.4296875 C5.25 10.625 5.25 10.625 6.11328125 12.58984375 C6.31774622 15.6334509 5.00668806 17.21768673 3.25 19.625 C0.18570224 21.15714888 -2.3665642 20.85438548 -5.75 20.625 C-8.6875 19.125 -8.6875 19.125 -10.75 17.625 C-9.76 16.635 -8.77 15.645 -7.75 14.625 C-7.09 14.955 -6.43 15.285 -5.75 15.625 C-3.75039988 15.664992 -1.74952758 15.66846799 0.25 15.625 C0.58 14.635 0.91 13.645 1.25 12.625 C0.62351563 12.44324219 -0.00296875 12.26148438 -0.6484375 12.07421875 C-1.46570313 11.82285156 -2.28296875 11.57148438 -3.125 11.3125 C-3.93710938 11.06886719 -4.74921875 10.82523437 -5.5859375 10.57421875 C-7.75 9.625 -7.75 9.625 -9.75 6.625 C-9.625 4.0625 -9.625 4.0625 -8.75 1.625 C-5.68047029 -0.42817432 -3.59782055 -0.52909126 0 0 Z " fill="#000000" transform="translate(242.75,260.375)"/>
<path d="M0 0 C0.79921875 0.11085937 1.5984375 0.22171875 2.421875 0.3359375 C3.32679687 0.47902344 3.32679687 0.47902344 4.25 0.625 C4.25 1.945 4.25 3.265 4.25 4.625 C1.28 4.625 -1.69 4.625 -4.75 4.625 C-3.15836765 7.8082647 -0.00175164 8.21690365 3.21875 9.4296875 C5.25 10.625 5.25 10.625 6.11328125 12.58984375 C6.31774622 15.6334509 5.00668806 17.21768673 3.25 19.625 C0.18570224 21.15714888 -2.3665642 20.85438548 -5.75 20.625 C-8.6875 19.125 -8.6875 19.125 -10.75 17.625 C-9.76 16.635 -8.77 15.645 -7.75 14.625 C-7.09 14.955 -6.43 15.285 -5.75 15.625 C-3.75039988 15.664992 -1.74952758 15.66846799 0.25 15.625 C0.58 14.635 0.91 13.645 1.25 12.625 C0.62351562 12.44324219 -0.00296875 12.26148438 -0.6484375 12.07421875 C-1.46570312 11.82285156 -2.28296875 11.57148438 -3.125 11.3125 C-3.93710937 11.06886719 -4.74921875 10.82523438 -5.5859375 10.57421875 C-7.75 9.625 -7.75 9.625 -9.75 6.625 C-9.625 4.0625 -9.625 4.0625 -8.75 1.625 C-5.68047029 -0.42817432 -3.59782055 -0.52909126 0 0 Z " fill="#000000" transform="translate(47.75,214.375)"/>
<path d="M0 0 C2.04898287 4.21896866 2.21207997 7.65372146 2.125 12.3125 C2.10695312 13.56675781 2.08890625 14.82101562 2.0703125 16.11328125 C2.04710937 17.06589844 2.02390625 18.01851563 2 19 C0.68 19 -0.64 19 -2 19 C-2.33 13.72 -2.66 8.44 -3 3 C-4.98 3.66 -6.96 4.32 -9 5 C-9.33 9.62 -9.66 14.24 -10 19 C-11.32 19 -12.64 19 -14 19 C-14 12.73 -14 6.46 -14 0 C-8.42654907 -0.79620728 -5.2947172 -0.97249908 0 0 Z " fill="#000000" transform="translate(203,261)"/>
<path d="M0 0 C2.04898287 4.21896866 2.21207997 7.65372146 2.125 12.3125 C2.10695312 13.56675781 2.08890625 14.82101562 2.0703125 16.11328125 C2.04710937 17.06589844 2.02390625 18.01851563 2 19 C0.68 19 -0.64 19 -2 19 C-2.33 13.72 -2.66 8.44 -3 3 C-4.98 3.66 -6.96 4.32 -9 5 C-9.33 9.62 -9.66 14.24 -10 19 C-11.32 19 -12.64 19 -14 19 C-14 12.73 -14 6.46 -14 0 C-8.42654907 -0.79620728 -5.2947172 -0.97249908 0 0 Z " fill="#000000" transform="translate(160,261)"/>
<path d="M0 0 C3.3 0 6.6 0 10 0 C10 7.92 10 15.84 10 24 C11.98 24 13.96 24 16 24 C16.33 24.99 16.66 25.98 17 27 C14.22899606 28.38550197 12.0665294 28.1877467 9 28 C6 26 6 26 5.31860352 24.15917969 C4.9834808 21.88804922 4.88683267 19.74876489 4.90234375 17.453125 C4.90717773 16.18662109 4.90717773 16.18662109 4.91210938 14.89453125 C4.92048828 14.02183594 4.92886719 13.14914063 4.9375 12.25 C4.94201172 11.36183594 4.94652344 10.47367188 4.95117188 9.55859375 C4.962926 7.37232671 4.97935751 5.18619821 5 3 C3.35 3 1.7 3 0 3 C0 2.01 0 1.02 0 0 Z " fill="#000000" transform="translate(102,207)"/>
<path d="M0 0 C1.32 0 2.64 0 4 0 C4 1.65 4 3.3 4 5 C5.98 5 7.96 5 10 5 C10 5.99 10 6.98 10 8 C8.02 8 6.04 8 4 8 C4 12.29 4 16.58 4 21 C6.64 21 9.28 21 12 21 C12 21.99 12 22.98 12 24 C9.19084526 25.40457737 7.11189466 25.24895157 4 25 C1.8203125 23.93359375 1.8203125 23.93359375 0 22 C-0.390625 18.64453125 -0.390625 18.64453125 -0.25 14.8125 C-0.21390625 13.54019531 -0.1778125 12.26789063 -0.140625 10.95703125 C-0.07101563 9.49330078 -0.07101563 9.49330078 0 8 C-1.65 8 -3.3 8 -5 8 C-5 7.01 -5 6.02 -5 5 C-3.35 5 -1.7 5 0 5 C0 3.35 0 1.7 0 0 Z " fill="#000000" transform="translate(215,256)"/>
<path d="M0 0 C1.32 0 2.64 0 4 0 C4 1.65 4 3.3 4 5 C5.98 5 7.96 5 10 5 C10 5.99 10 6.98 10 8 C8.02 8 6.04 8 4 8 C4 12.29 4 16.58 4 21 C6.64 21 9.28 21 12 21 C12 21.99 12 22.98 12 24 C9.19084526 25.40457737 7.11189466 25.24895157 4 25 C1.8203125 23.93359375 1.8203125 23.93359375 0 22 C-0.390625 18.64453125 -0.390625 18.64453125 -0.25 14.8125 C-0.21390625 13.54019531 -0.1778125 12.26789063 -0.140625 10.95703125 C-0.07101563 9.49330078 -0.07101563 9.49330078 0 8 C-1.65 8 -3.3 8 -5 8 C-5 7.01 -5 6.02 -5 5 C-3.35 5 -1.7 5 0 5 C0 3.35 0 1.7 0 0 Z " fill="#000000" transform="translate(63,210)"/>
<path d="M0 0 C2.375 1 2.375 1 4 2 C3.67 2.99 3.34 3.98 3 5 C0.98177083 4.90234375 -1.03645833 4.8046875 -3.0546875 4.70703125 C-3.69664063 4.80371094 -4.33859375 4.90039062 -5 5 C-7.30163882 8.45245824 -7.34490322 9.94738713 -7 14 C-5.23863645 16.18331689 -5.23863645 16.18331689 -3.0546875 16.1953125 C-0.02734375 16.09765625 -0.02734375 16.09765625 3 16 C3.33 16.99 3.66 17.98 4 19 C0.65886751 21.36663552 -2.21194755 21.23439677 -6.09375 20.58984375 C-8 20 -8 20 -10.5 18 C-12.54349975 13.91300049 -12.82908433 10.48680929 -12 6 C-8.63606247 0.61769996 -6.22224572 -0.37333474 0 0 Z " fill="#000000" transform="translate(49,260)"/>
<path d="M0 0 C0.495 0.495 0.495 0.495 1 1 C0.94921875 2.99609375 0.94921875 2.99609375 0.6875 5.4375 C0.60886719 6.24058594 0.53023437 7.04367188 0.44921875 7.87109375 C0 10 0 10 -2 12 C-1.67 8.7 -1.34 5.4 -1 2 C-8.47523432 2 -13.47478228 6.29027876 -19 11 C-19.66 11.99 -20.32 12.98 -21 14 C-21.66 14 -22.32 14 -23 14 C-23.33 16.64 -23.66 19.28 -24 22 C-21.69 22.99 -19.38 23.98 -17 25 C-17 25.33 -17 25.66 -17 26 C-19.75 26.3125 -19.75 26.3125 -23 26 C-25.375 23.625 -25.375 23.625 -27 21 C-27 20.34 -27 19.68 -27 19 C-32.71779646 23.14820528 -38.11063219 27.57487234 -43.43041992 32.21606445 C-46.1488006 34.5591846 -48.67162517 36.61048429 -52 38 C-50.63955186 33.91865557 -47.81894884 32.30278281 -44.5 29.8125 C-38.78033037 25.42524517 -33.32317034 20.86481516 -28 16 C-8.4373516 -1.79518119 -8.4373516 -1.79518119 0 0 Z " fill="#B45057" transform="translate(160,82)"/>
<path d="M0 0 C-0.845625 0.64066406 -1.69125 1.28132812 -2.5625 1.94140625 C-3.70865444 2.81468289 -4.85446445 3.68841168 -6 4.5625 C-6.89150757 5.23998291 -6.89150757 5.23998291 -7.80102539 5.93115234 C-11.1766442 8.51917263 -14.34920372 11.19322556 -17.4375 14.125 C-20.12358434 16.56015502 -20.72886886 16.96610861 -24.5 17.4375 C-25.325 17.293125 -26.15 17.14875 -27 17 C-23.60139178 8.58797523 -13.06408709 3.41695065 -5.25 -0.3125 C-3 -1 -3 -1 0 0 Z " fill="#FEC536" transform="translate(151,134)"/>
<path d="M0 0 C-0.89086909 4.92889555 -3.85866926 7.33742022 -7.3125 10.75 C-7.89451172 11.35199219 -8.47652344 11.95398438 -9.07617188 12.57421875 C-9.64529297 13.14269531 -10.21441406 13.71117188 -10.80078125 14.296875 C-11.31809814 14.81604492 -11.83541504 15.33521484 -12.3684082 15.87011719 C-14 17 -14 17 -18 17 C-18.375 14.9375 -18.375 14.9375 -18 12 C-16.59659275 10.03607274 -15.06075466 8.31063913 -13.41015625 6.55078125 C-11.90550609 5.03673407 -11.90550609 5.03673407 -11 3 C-9.88625 3.0928125 -9.88625 3.0928125 -8.75 3.1875 C-5.00949297 2.93246543 -3.49394693 0 0 0 Z " fill="#D56FAD" transform="translate(174,94)"/>
<path d="M0 0 C1.09054688 0.58587891 1.09054688 0.58587891 2.203125 1.18359375 C0.74542378 4.50266731 -1.09193764 6.83432764 -3.609375 9.43359375 C-4.27582031 10.14 -4.94226563 10.84640625 -5.62890625 11.57421875 C-8.23247248 13.5069562 -9.62787216 13.51542651 -12.796875 13.18359375 C-12.87991191 9.11478517 -12.68042472 7.16005283 -9.90234375 4.08984375 C-3.71257122 -1.08369747 -3.71257122 -1.08369747 0 0 Z " fill="#D672AF" transform="translate(176.796875,115.81640625)"/>
<path d="M0 0 C2 2 2 2 2.046875 3.875 C1.94890625 4.57625 1.8509375 5.2775 1.75 6 C1.66234375 6.70125 1.5746875 7.4025 1.484375 8.125 C1 10 1 10 -1 12 C-0.67 8.7 -0.34 5.4 0 2 C-5.95217404 3.04424106 -9.21471124 4.53895185 -13.5546875 8.7578125 C-15 10 -15 10 -17 10 C-17.226875 10.5775 -17.45375 11.155 -17.6875 11.75 C-19 14 -19 14 -21.5625 15.9375 C-24.21404941 17.79834959 -24.21404941 17.79834959 -24.8125 20.75 C-24.9053125 21.86375 -24.9053125 21.86375 -25 23 C-25.66 22.67 -26.32 22.34 -27 22 C-26.67 18.37 -26.34 14.74 -26 11 C-24.33333333 11 -22.66666667 11 -21 11 C-19.17086207 9.58895074 -17.38531262 8.12102976 -15.625 6.625 C-7.09553024 -0.61700263 -7.09553024 -0.61700263 0 0 Z " fill="#A43C77" transform="translate(180,87)"/>
<path d="M0 0 C1.32 0.33 2.64 0.66 4 1 C3.54543566 3.04250911 3.08617174 5.0839726 2.625 7.125 C2.36976563 8.26195313 2.11453125 9.39890625 1.8515625 10.5703125 C1.05347298 13.78463633 0.0465239 16.86042831 -1 20 C-1.37531446 22.32694964 -1.71917202 24.65976685 -2 27 C-3.32 27 -4.64 27 -6 27 C-5.86464844 26.32710937 -5.72929687 25.65421875 -5.58984375 24.9609375 C-5.15949431 22.80064029 -4.73594502 20.63898519 -4.31640625 18.4765625 C-4.06761719 17.20554687 -3.81882813 15.93453125 -3.5625 14.625 C-3.31628906 13.35914062 -3.07007813 12.09328125 -2.81640625 10.7890625 C-2.02641368 7.12258982 -1.07179647 3.59121414 0 0 Z " fill="#F596D0" transform="translate(195,69)"/>
<path d="M0 0 C0.99 0.33 1.98 0.66 3 1 C-6.18651918 8.54273846 -15.41157263 15.97211857 -25 23 C-25.33 21.68 -25.66 20.36 -26 19 C-25.34 19 -24.68 19 -24 19 C-24 18.34 -24 17.68 -24 17 C-19.61538462 14 -19.61538462 14 -17 14 C-17 13.34 -17 12.68 -17 12 C-10.25 8 -10.25 8 -8 8 C-7.79375 7.4225 -7.5875 6.845 -7.375 6.25 C-5.46297304 3.12122861 -3.18080599 1.75268902 0 0 Z " fill="#FDC637" transform="translate(134,118)"/>
<path d="M0 0 C2.625 -0.1875 2.625 -0.1875 5 0 C5.34645484 4.8503678 4.69198859 7.91560352 2 12 C-0.61328125 13.171875 -0.61328125 13.171875 -3 14 C-2.88570603 12.22844346 -2.75816963 10.45773771 -2.625 8.6875 C-2.55539063 7.70136719 -2.48578125 6.71523437 -2.4140625 5.69921875 C-2 3 -2 3 0 0 Z " fill="#DC72B2" transform="translate(187,99)"/>
<path d="M0 0 C1.57718151 4.44478426 0.43666869 7.7015087 -0.91796875 12.01171875 C-2.24225118 14.44514748 -3.45873154 15.01611345 -6 16 C-5.6875 14.0625 -5.6875 14.0625 -5 12 C-4.01 11.67 -3.02 11.34 -2 11 C-1.67 8.03 -1.34 5.06 -1 2 C-3.97835269 2.99278423 -5.82072155 3.82072155 -8.0625 6.0625 C-10.19097887 8.19097887 -11.11788292 8.47597871 -14 9 C-15.6744239 9.6469365 -17.34302621 10.30959426 -19 11 C-13.94712301 5.45813492 -7.90867822 -0.59872036 0 0 Z " fill="#C35796" transform="translate(159,83)"/>
<path d="M0 0 C0.33 0 0.66 0 1 0 C1.54384546 6.66210686 0.85510676 10.49270463 -3 16 C-4.75 17.9375 -4.75 17.9375 -6 19 C-5.29666462 16.02277453 -4.41751463 13.14743457 -3.4375 10.25 C-3.16808594 9.45078125 -2.89867187 8.6515625 -2.62109375 7.828125 C-2.41613281 7.22484375 -2.21117187 6.6215625 -2 6 C-2.59425781 6.44472656 -3.18851563 6.88945312 -3.80078125 7.34765625 C-9.85668873 11.48224938 -13.68090713 12.57669887 -20.9453125 11.4296875 C-21.62335938 11.28789062 -22.30140625 11.14609375 -23 11 C-23 10.67 -23 10.34 -23 10 C-22.38253906 10.06960937 -21.76507813 10.13921875 -21.12890625 10.2109375 C-13.72141625 10.68447567 -9.62959765 8.71047967 -4 4 C-2.63292796 2.70128156 -1.27897723 1.38555866 0 0 Z " fill="#F7BD3B" transform="translate(183,122)"/>
<path d="M0 0 C1.32 0 2.64 0 4 0 C3.67 3.96 3.34 7.92 3 12 C2.34 12 1.68 12 1 12 C1 13.65 1 15.3 1 17 C-0.98 17 -2.96 17 -5 17 C-4.34 16.67 -3.68 16.34 -3 16 C-2.73281147 14.09628174 -2.47541239 12.19028272 -2.28515625 10.27734375 C-1.84451085 6.75821681 -0.91691607 3.42315331 0 0 Z " fill="#ED83C4" transform="translate(201,51)"/>
<path d="M0 0 C1.4540625 0.0309375 1.4540625 0.0309375 2.9375 0.0625 C2.35411865 0.31628418 1.7707373 0.57006836 1.16967773 0.83154297 C-1.30816699 2.19797555 -2.84693292 3.69518175 -4.77734375 5.7578125 C-5.46376953 6.47324219 -6.15019531 7.18867188 -6.85742188 7.92578125 C-8.28787143 9.43577267 -9.71235539 10.9514375 -11.13085938 12.47265625 C-11.81857422 13.18550781 -12.50628906 13.89835938 -13.21484375 14.6328125 C-13.83351318 15.29039551 -14.45218262 15.94797852 -15.08959961 16.62548828 C-17.56285549 18.42694653 -19.07058918 18.34633552 -22.0625 18.0625 C-18.25009827 14.19276892 -14.31614482 10.4832575 -10.3125 6.8125 C-2.96570777 0.06052465 -2.96570777 0.06052465 0 0 Z " fill="#FFD049" transform="translate(163.0625,132.9375)"/>
<path d="M0 0 C0.99 0 1.98 0 3 0 C2.98839844 1.05960938 2.97679687 2.11921875 2.96484375 3.2109375 C2.95546524 4.59895658 2.94636511 5.98697755 2.9375 7.375 C2.92912109 8.07367188 2.92074219 8.77234375 2.91210938 9.4921875 C2.8164558 13.37295376 2.8164558 13.37295376 4 17 C1.12133707 15.70956489 -1.08175681 14.53868386 -3 12 C-2.890625 9.58984375 -2.890625 9.58984375 -2.25 6.9375 C-2.04890625 6.05964844 -1.8478125 5.18179688 -1.640625 4.27734375 C-1 2 -1 2 0 0 Z " fill="#A45284" transform="translate(189,51)"/>
<path d="M0 0 C0.66 0 1.32 0 2 0 C2 2.31 2 4.62 2 7 C0.02 7.33 -1.96 7.66 -4 8 C-4.99 11.3 -5.98 14.6 -7 18 C-7.33 18 -7.66 18 -8 18 C-8.02708567 16.39592672 -8.04643483 14.7917215 -8.0625 13.1875 C-8.07410156 12.29417969 -8.08570313 11.40085937 -8.09765625 10.48046875 C-8 8 -8 8 -7 5 C-5.35 5 -3.7 5 -2 5 C-1.34 3.35 -0.68 1.7 0 0 Z " fill="#8F3E6F" transform="translate(206,64)"/>
<path d="M0 0 C-0.835628 4.62409693 -3.6483501 6.77676317 -7.0625 9.75 C-7.63033203 10.25660156 -8.19816406 10.76320313 -8.78320312 11.28515625 C-10.1819865 12.53113136 -11.59010733 13.76660973 -13 15 C-13.66 14.67 -14.32 14.34 -15 14 C-14.62488281 13.56429687 -14.24976563 13.12859375 -13.86328125 12.6796875 C-13.35152344 12.08414063 -12.83976563 11.48859375 -12.3125 10.875 C-11.76722656 10.24078125 -11.22195312 9.6065625 -10.66015625 8.953125 C-9.1659602 7.19524729 -7.70541285 5.41494059 -6.25 3.625 C-3.14285714 0 -3.14285714 0 0 0 Z " fill="#D978B3" transform="translate(174,94)"/>
<path d="M0 0 C0.56976563 0.24105469 1.13953125 0.48210937 1.7265625 0.73046875 C-2.10113792 3.80693825 -5.95561479 6.84587438 -9.8359375 9.85546875 C-10.39990234 10.29761719 -10.96386719 10.73976563 -11.54492188 11.1953125 C-14.34082022 13.36008993 -17.0220273 15.31542959 -20.2734375 16.73046875 C-18.42147567 13.02654509 -16.62429081 11.10348074 -13.0859375 8.98046875 C-9.88662234 6.7740445 -7.19595619 3.95300017 -4.421875 1.2421875 C-2.2734375 -0.26953125 -2.2734375 -0.26953125 0 0 Z " fill="#FFCF46" transform="translate(154.2734375,113.26953125)"/>
<path d="M0 0 C0.34518199 5.63797249 -0.36069593 9.11239987 -3 14 C-3.99 14.33 -4.98 14.66 -6 15 C-5.38722388 12.03824877 -4.74627478 10.61941217 -3 8 C-2.60986284 6.0103005 -2.26797351 4.00980131 -2 2 C-4.97 2.66 -7.94 3.32 -11 4 C-6.98844558 -0.01155442 -5.52552982 -0.12012021 0 0 Z " fill="#C35998" transform="translate(180,89)"/>
<path d="M0 0 C0.33 0 0.66 0 1 0 C1.41640288 7.2484945 0.44166784 13.16914355 -2 20 C-2.66 20 -3.32 20 -4 20 C-4.66268329 12.87615459 -2.25388064 6.69120815 0 0 Z " fill="#A55083" transform="translate(197,76)"/>
<path d="M0 0 C-3.57854119 3.15753634 -6.52022254 4.50674085 -11 6 C-13.13794558 7.29475583 -15.20658513 8.65763124 -17.265625 10.07421875 C-17.83796875 10.37972656 -18.4103125 10.68523437 -19 11 C-19.66 10.67 -20.32 10.34 -21 10 C-6.96644295 -2.32214765 -6.96644295 -2.32214765 0 0 Z " fill="#FECC43" transform="translate(151,134)"/>
<path d="M0 0 C1.87457064 6.59075233 1.13537936 13.32964627 0 20 C-1.32 20 -2.64 20 -4 20 C-2.66666667 13.33333333 -1.33333333 6.66666667 0 0 Z " fill="#F096CD" transform="translate(193,76)"/>
<path d="M0 0 C0.33 0 0.66 0 1 0 C1.33560317 5.48151838 0.66944096 10.55706592 -0.375 15.9375 C-0.56412964 16.94985718 -0.56412964 16.94985718 -0.75708008 17.98266602 C-1.10126156 19.67093739 -1.54328207 21.33863614 -2 23 C-2.66 23.33 -3.32 23.66 -4 24 C-4.23952163 18.36375658 -3.38279585 13.51426608 -2 8.0625 C-1.80921875 7.28326172 -1.6184375 6.50402344 -1.421875 5.70117188 C-0.9550862 3.79900752 -0.47854864 1.89923991 0 0 Z " fill="#904572" transform="translate(193,68)"/>
<path d="M0 0 C1.32 0.33 2.64 0.66 4 1 C2.21427748 2.83947337 0.42197551 4.67157741 -1.375 6.5 C-1.88289062 7.02464844 -2.39078125 7.54929687 -2.9140625 8.08984375 C-4.23832604 9.43153181 -5.61605865 10.71995815 -7 12 C-7.66 12 -8.32 12 -9 12 C-7.55575365 8.76138697 -5.74227753 6.38030837 -3.375 3.75 C-2.74335938 3.04359375 -2.11171875 2.3371875 -1.4609375 1.609375 C-0.97882813 1.07828125 -0.49671875 0.5471875 0 0 Z " fill="#D97AB4" transform="translate(148,91)"/>
<path d="M0 0 C0.66 0.33 1.32 0.66 2 1 C1.46890625 1.51949219 0.9378125 2.03898437 0.390625 2.57421875 C-3.31050353 6.22807009 -6.87158441 9.82877921 -10 14 C-10.05794427 11.16073075 -10.04896278 9.58744151 -9 7 C-6.24024505 4.30273007 -3.20907393 2.13289964 0 0 Z " fill="#CE64A5" transform="translate(174,115)"/>
<path d="M0 0 C0.99 0 1.98 0 3 0 C2.33333333 4.66666667 1.66666667 9.33333333 1 14 C1.99 14.66 2.98 15.32 4 16 C2.35 15.67 0.7 15.34 -1 15 C-1.18451025 4.44191344 -1.18451025 4.44191344 0 0 Z " fill="#EF8AC8" transform="translate(192,51)"/>
<path d="M0 0 C0.66 0.33 1.32 0.66 2 1 C-1.16822425 5.56224292 -4.23420344 7.4004746 -9 10 C-10.85859339 11.60172474 -10.85859339 11.60172474 -12 13 C-12.66 12.67 -13.32 12.34 -14 12 C-12.41856529 10.56041153 -10.83477221 9.12341355 -9.25 7.6875 C-8.36828125 6.88699219 -7.4865625 6.08648437 -6.578125 5.26171875 C-4.44550672 3.39083089 -2.29812057 1.65915714 0 0 Z " fill="#EB961B" transform="translate(144,138)"/>
<path d="M0 0 C0.33 0 0.66 0 1 0 C1 1.98 1 3.96 1 6 C0.34 6 -0.32 6 -1 6 C-1 7.65 -1 9.3 -1 11 C-2.98 11 -4.96 11 -7 11 C-6.57847656 10.37351562 -6.15695313 9.74703125 -5.72265625 9.1015625 C-4.90087891 7.87566406 -4.90087891 7.87566406 -4.0625 6.625 C-3.24458984 5.40683594 -3.24458984 5.40683594 -2.41015625 4.1640625 C-0.98906121 2.07280816 -0.98906121 2.07280816 0 0 Z " fill="#E278B9" transform="translate(203,57)"/>
<path d="M0 0 C0.33 0 0.66 0 1 0 C1 4.29 1 8.58 1 13 C0.34 13 -0.32 13 -1 13 C-1.33 13.99 -1.66 14.98 -2 16 C-3.26977059 12.19068824 -2.52074507 10.18381007 -1.5625 6.3125 C-1.27503906 5.13300781 -0.98757812 3.95351563 -0.69140625 2.73828125 C-0.46324219 1.83464844 -0.23507813 0.93101563 0 0 Z " fill="#C25899" transform="translate(207,51)"/>
<path d="M0 0 C0.33 1.32 0.66 2.64 1 4 C0.27425781 4.24492187 -0.45148438 4.48984375 -1.19921875 4.7421875 C-4.31287937 6.14051207 -6.31400755 7.81296221 -8.8125 10.125 C-9.60269531 10.84945312 -10.39289063 11.57390625 -11.20703125 12.3203125 C-11.79871094 12.87460938 -12.39039063 13.42890625 -13 14 C-13.66 13.67 -14.32 13.34 -15 13 C-13.2519799 11.3936298 -11.50168356 9.78986703 -9.75 8.1875 C-9.25886719 7.73568359 -8.76773438 7.28386719 -8.26171875 6.81835938 C-5.60492352 4.39181973 -2.92534924 2.09650029 0 0 Z " fill="#ED981C" transform="translate(161,124)"/>
<path d="M0 0 C-2.59422981 2.87218301 -4.19706844 4.3085579 -8 5 C-9.6744239 5.6469365 -11.34302621 6.30959426 -13 7 C-4 -2 -4 -2 0 0 Z " fill="#CA5DA0" transform="translate(153,87)"/>
<path d="M0 0 C0 2.97 0 5.94 0 9 C-0.66 9 -1.32 9 -2 9 C-2 7.68 -2 6.36 -2 5 C-3.32 5.99 -4.64 6.98 -6 8 C-6.66 7.67 -7.32 7.34 -8 7 C-6.8572081 5.83035398 -5.71068285 4.66435444 -4.5625 3.5 C-3.92441406 2.8503125 -3.28632813 2.200625 -2.62890625 1.53125 C-1 0 -1 0 0 0 Z " fill="#F2B236" transform="translate(176,103)"/>
<path d="M0 0 C0.66 0.33 1.32 0.66 2 1 C1.01 3.64 0.02 6.28 -1 9 C-1.33 8.01 -1.66 7.02 -2 6 C-2.99 6 -3.98 6 -5 6 C-3.86695008 2.60085025 -2.87481525 1.94745549 0 0 Z " fill="#9F4279" transform="translate(187,111)"/>
<path d="M0 0 C0.66 0.33 1.32 0.66 2 1 C0.9024777 3.99324263 0.32317108 4.84610901 -2.625 6.25 C-3.40875 6.4975 -4.1925 6.745 -5 7 C-5 5.02 -5 3.04 -5 1 C-2.525 1.99 -2.525 1.99 0 3 C0 2.01 0 1.02 0 0 Z " fill="#D563A6" transform="translate(189,106)"/>
<path d="M0 0 C0.66 0.33 1.32 0.66 2 1 C2.21278058 5.46839215 1.59138085 8.82262526 0 13 C-0.66 12.67 -1.32 12.34 -2 12 C-1.85962479 10.18706911 -1.71255111 8.3746557 -1.5625 6.5625 C-1.48128906 5.55316406 -1.40007812 4.54382813 -1.31640625 3.50390625 C-1 1 -1 1 0 0 Z " fill="#B85453" transform="translate(155,97)"/>
<path d="M0 0 C0.33 0.99 0.66 1.98 1 3 C-0.75 4.5625 -0.75 4.5625 -3 6 C-4.32 5.67 -5.64 5.34 -7 5 C-4.69 3.35 -2.38 1.7 0 0 Z " fill="#AA3E7D" transform="translate(168,91)"/>
<path d="M0 0 C0 1.65 0 3.3 0 5 C-3 5 -3 5 -6 4 C-2.25 0 -2.25 0 0 0 Z " fill="#F8B834" transform="translate(155,99)"/>
<path d="M0 0 C0.66 0 1.32 0 2 0 C2.33 1.65 2.66 3.3 3 5 C1.68 5 0.36 5 -1 5 C-0.67 3.35 -0.34 1.7 0 0 Z " fill="#EA8EC6" transform="translate(190,91)"/>
<path d="M0 0 C0.66 0.33 1.32 0.66 2 1 C0.02 2.98 -1.96 4.96 -4 7 C-4.99 6.67 -5.98 6.34 -7 6 C-4.69 4.02 -2.38 2.04 0 0 Z " fill="#FEB728" transform="translate(139,144)"/>
<path d="M0 0 C0 3 0 3 -1.3125 4.38671875 C-2.875 5.59114583 -4.4375 6.79557292 -6 8 C-6.66 7.67 -7.32 7.34 -8 7 C-5.36 4.69 -2.72 2.38 0 0 Z " fill="#D97AB5" transform="translate(177,118)"/>
<path d="M0 0 C1.0326802 2.78823655 1.04509293 3.8677274 0.0625 6.75 C-0.288125 7.4925 -0.63875 8.235 -1 9 C-1.33 9 -1.66 9 -2 9 C-2.125 5.625 -2.125 5.625 -2 2 C-1.34 1.34 -0.68 0.68 0 0 Z " fill="#B86697" transform="translate(191,83)"/>
<path d="M0 0 C0.66 0.33 1.32 0.66 2 1 C-0.31 3.31 -2.62 5.62 -5 8 C-5.33 7.01 -5.66 6.02 -6 5 C-4.02 3.35 -2.04 1.7 0 0 Z " fill="#FDB528" transform="translate(114,138)"/>
</svg>
