<?xml version="1.0" encoding="UTF-8"?>
<svg version="1.1" xmlns="http://www.w3.org/2000/svg" width="707" height="353">
<path d="M0 0 C3.02316066 2.68948734 5.82261565 5.51224169 8.625 8.42578125 C14.90051445 14.84494124 21.22490151 18.64978092 30.375 19.05078125 C37.5400749 18.98983894 43.079247 16.66829075 48.9375 12.61328125 C50.6379144 10.68703056 51.67604143 8.87339453 52.9375 6.61328125 C55.03125 5.9453125 55.03125 5.9453125 56.9375 5.61328125 C56.9375 16.18358613 50.79047818 25.82153894 43.9375 33.61328125 C31.73327846 43.70432046 16.41520151 47.03169485 0.9375 45.61328125 C-7.42111115 44.0653903 -14.98001579 41.32136941 -22.0625 36.61328125 C-22.81789063 36.11441406 -23.57328125 35.61554688 -24.3515625 35.1015625 C-29.9317358 31.18755402 -29.9317358 31.18755402 -30.53125 28.5546875 C-30.86581227 26.43964815 -30.86581227 26.43964815 -32.90234375 25.546875 C-33.61519531 25.23878906 -34.32804687 24.93070313 -35.0625 24.61328125 C-36.28079434 23.67270562 -37.46909214 22.69204924 -38.625 21.67578125 C-39.20378906 21.17175781 -39.78257812 20.66773438 -40.37890625 20.1484375 C-42.0625 18.61328125 -42.0625 18.61328125 -43.51953125 17.02734375 C-47.98668756 12.93339291 -54.95649989 12.11850153 -60.796875 12.3125 C-64.05257223 12.74472187 -66.98581129 13.7391499 -70.05078125 14.89453125 C-72.0625 15.61328125 -72.0625 15.61328125 -75 16.05078125 C-77.20677787 16.39849605 -77.20677787 16.39849605 -78.125 18.36328125 C-78.5890625 19.47703125 -78.5890625 19.47703125 -79.0625 20.61328125 C-81 23.36328125 -81 23.36328125 -83.0625 25.61328125 C-84.0525 25.61328125 -85.0425 25.61328125 -86.0625 25.61328125 C-84.75280485 12.58264339 -77.19362746 1.47665272 -67.25 -6.69921875 C-44.85308139 -18.55641095 -19.46318837 -16.15761969 0 0 Z " fill="#19B4B6" transform="translate(344.0625,144.38671875)"/>
<path d="M0 0 C3.22139209 2.61566025 6.33420875 5.29863941 9.125 8.375 C9.125 9.035 9.125 9.695 9.125 10.375 C10.445 11.035 11.765 11.695 13.125 12.375 C13.125 13.035 13.125 13.695 13.125 14.375 C13.69992187 14.65214844 14.27484375 14.92929688 14.8671875 15.21484375 C17.125 16.375 17.125 16.375 19.1328125 17.62890625 C25.90673574 21.81574072 32.35593736 23.34117114 40.25 21.75 C46.34181668 19.92121933 51.57695159 16.69707262 55.125 11.375 C55.785 11.375 56.445 11.375 57.125 11.375 C57.455 10.385 57.785 9.395 58.125 8.375 C58.785 8.375 59.445 8.375 60.125 8.375 C60.64718345 14.58408764 59.05670515 18.39974031 56.125 23.8125 C55.55265625 24.90981445 55.55265625 24.90981445 54.96875 26.02929688 C54.03353443 27.81789665 53.08100621 29.59742596 52.125 31.375 C51.465 31.375 50.805 31.375 50.125 31.375 C49.856875 31.97441406 49.58875 32.57382813 49.3125 33.19140625 C45.32560361 40.52257428 36.58963184 44.32310516 29.1171875 47.12890625 C13.81915963 51.41835328 -3.28454365 48.35862363 -17.046875 41.1171875 C-21.49331807 38.37808031 -25.1818274 35.04523364 -28.875 31.375 C-29.74125 30.529375 -30.6075 29.68375 -31.5 28.8125 C-32.81690992 27.46093455 -34.11781958 26.09084943 -35.34375 24.65625 C-40.78892738 18.59463745 -47.68366069 15.39641996 -55.875 14.875 C-62.41221916 15.26588527 -68.8533905 17.65448127 -73.8125 21.875 C-74.493125 22.7 -75.17375 23.525 -75.875 24.375 C-77.17079647 25.74484198 -78.49492749 27.0901049 -79.875 28.375 C-80.535 28.375 -81.195 28.375 -81.875 28.375 C-83.17051321 24.46478822 -82.28183528 22.42295285 -80.47485352 18.73974609 C-80.11190186 18.04187988 -79.7489502 17.34401367 -79.375 16.625 C-79.00624756 15.90779785 -78.63749512 15.1905957 -78.25756836 14.45166016 C-71.67044594 2.00758829 -62.28548289 -5.29545668 -48.875 -9.625 C-32.11377633 -13.92423935 -13.82336722 -10.13713596 0 0 Z " fill="#17B8B5" transform="translate(387.875,84.625)"/>
<path d="M0 0 C4.29 0 8.58 0 13 0 C13 1.32 13 2.64 13 4 C12.01 4 11.02 4 10 4 C10.2165625 4.66386719 10.433125 5.32773438 10.65625 6.01171875 C10.9346875 6.89472656 11.213125 7.77773437 11.5 8.6875 C11.7784375 9.55761719 12.056875 10.42773438 12.34375 11.32421875 C12.99850805 13.99391677 13.11831495 16.26396684 13 19 C13.66 19 14.32 19 15 19 C15.29003906 17.87851562 15.29003906 17.87851562 15.5859375 16.734375 C15.84632813 15.74953125 16.10671875 14.7646875 16.375 13.75 C16.75785156 12.28820312 16.75785156 12.28820312 17.1484375 10.796875 C17.89598509 8.34162697 18.77123817 6.24382595 20 4 C18.68 4 17.36 4 16 4 C16.33 2.68 16.66 1.36 17 0 C20.96 0 24.92 0 29 0 C29.33 1.32 29.66 2.64 30 4 C28.68 4.33 27.36 4.66 26 5 C26.433125 6.12148437 26.433125 6.12148437 26.875 7.265625 C27.24625 8.25046875 27.6175 9.2353125 28 10.25 C28.556875 11.71179688 28.556875 11.71179688 29.125 13.203125 C30 16 30 16 30 20 C30.66 20 31.32 20 32 20 C32.103125 18.845 32.20625 17.69 32.3125 16.5 C32.86035113 11.98828481 34.2774879 8.19394251 36 4 C34.68 4 33.36 4 32 4 C32 2.68 32 1.36 32 0 C40.58 0 49.16 0 58 0 C58.495 1.98 58.495 1.98 59 4 C57.68 4 56.36 4 55 4 C55.05187541 7.75112898 55.14695218 11.49995532 55.25 15.25 C55.26417969 16.31347656 55.27835937 17.37695312 55.29296875 18.47265625 C55.32519531 19.49746094 55.35742188 20.52226562 55.390625 21.578125 C55.41157227 22.52075195 55.43251953 23.46337891 55.45410156 24.43457031 C56.14219247 27.66822831 57.516836 28.89753013 60 31 C59 32 59 32 55.83984375 32.09765625 C54.55207031 32.08605469 53.26429688 32.07445312 51.9375 32.0625 C50.64714844 32.05347656 49.35679687 32.04445313 48.02734375 32.03515625 C47.02832031 32.02355469 46.02929688 32.01195312 45 32 C45 31.01 45 30.02 45 29 C45.99 29 46.98 29 48 29 C48 20.75 48 12.5 48 4 C45.36 4 42.72 4 40 4 C39.61908203 5.77503906 39.61908203 5.77503906 39.23046875 7.5859375 C37.44391988 15.82043028 35.65603962 23.99163812 33 32 C31.35 32 29.7 32 28 32 C25.48590969 25.63876684 23.51621228 19.83981276 23 13 C22.34 13 21.68 13 21 13 C20.90203125 13.70125 20.8040625 14.4025 20.703125 15.125 C19.70025836 21.48801593 18.17338469 26.39368706 15 32 C13.68 32 12.36 32 11 32 C9.8529053 28.08370163 8.70754303 24.16689868 7.5625 20.25 C7.23701172 19.13882812 6.91152344 18.02765625 6.57617188 16.8828125 C6.26357422 15.81289063 5.95097656 14.74296875 5.62890625 13.640625 C5.34088135 12.65610352 5.05285645 11.67158203 4.75610352 10.65722656 C4.12688262 8.44591232 3.54006553 6.23443421 3 4 C2.01 4 1.02 4 0 4 C0 2.68 0 1.36 0 0 Z " fill="#878787" transform="translate(300,242)"/>
<path d="M0 0 C2.37109375 0.25 2.37109375 0.25 5 1 C10.13940043 8.09335779 11.15743138 19.55162687 13 28 C15.64 28 18.28 28 21 28 C21.33 20.08 21.66 12.16 22 4 C20.68 4 19.36 4 18 4 C18 2.68 18 1.36 18 0 C22.29 0 26.58 0 31 0 C31.495 1.98 31.495 1.98 32 4 C30.68 4 29.36 4 28 4 C28.495 15.88 28.495 15.88 29 28 C29.99 28.33 30.98 28.66 32 29 C32 29.99 32 30.98 32 32 C22.43 32 12.86 32 3 32 C3 31.01 3 30.02 3 29 C3.99 28.34 4.98 27.68 6 27 C5.67 25.68 5.34 24.36 5 23 C2.36 23 -0.28 23 -3 23 C-3.99 25.475 -3.99 25.475 -5 28 C-4.01 28.33 -3.02 28.66 -2 29 C-2 29.99 -2 30.98 -2 32 C-5.96 32 -9.92 32 -14 32 C-13.67 30.68 -13.34 29.36 -13 28 C-12.01 27.67 -11.02 27.34 -10 27 C-8.88237943 24.16273392 -7.93914265 21.41119133 -7.0625 18.5 C-5.05148157 12.12528511 -2.90550348 6.03450723 0 0 Z M0 10 C-0.66 12.97 -1.32 15.94 -2 19 C-0.02 19 1.96 19 4 19 C3.01 16.03 2.02 13.06 1 10 C0.67 10 0.34 10 0 10 Z " fill="#7C7C7C" transform="translate(244,242)"/>
<path d="M0 0 C5.24934383 -0.52493438 5.24934383 -0.52493438 8 0 C12 4.6 12 4.6 12 8 C12.60328125 8.24492187 13.2065625 8.48984375 13.828125 8.7421875 C17.52116472 10.8809623 18.88781867 14.36235438 21 18 C21.33 13.38 21.66 8.76 22 4 C20.68 4 19.36 4 18 4 C18.33 2.68 18.66 1.36 19 0 C22.63 0 26.26 0 30 0 C30.33 1.32 30.66 2.64 31 4 C29.68 4 28.36 4 27 4 C27 13.24 27 22.48 27 32 C25.35 32 23.7 32 22 32 C20.19140625 30.09375 20.19140625 30.09375 18.5625 27.5 C17.97339844 26.5925 17.38429688 25.685 16.77734375 24.75 C16.19082031 23.8425 15.60429687 22.935 15 22 C13.88936277 20.4893346 12.76569429 18.98809998 11.625 17.5 C10.22339688 15.67117026 9.03082255 14.06164511 8 12 C7.67 17.28 7.34 22.56 7 28 C8.65 28.33 10.3 28.66 12 29 C12 29.99 12 30.98 12 32 C7.71 32 3.42 32 -1 32 C-1 31.01 -1 30.02 -1 29 C0.32 28.67 1.64 28.34 3 28 C3 20.08 3 12.16 3 4 C1.68 4 0.36 4 -1 4 C-0.67 2.68 -0.34 1.36 0 0 Z " fill="#6B6B6B" transform="translate(362,242)"/>
<path d="M0 0 C16.94977169 -0.39726027 16.94977169 -0.39726027 23 2 C27.5083107 6.38967094 29.09735256 10.75521706 29.375 16.9375 C29.26857783 21.71230817 28.21792805 24.34721681 25 28 C19.35421449 33.38689588 13.47984663 32.96568878 6 33 C3.56683098 32.83060216 1.38747739 32.5116023 -1 32 C-1 31.01 -1 30.02 -1 29 C-0.01 28.67 0.98 28.34 2 28 C2.33 20.08 2.66 12.16 3 4 C1.68 4 0.36 4 -1 4 C-0.67 2.68 -0.34 1.36 0 0 Z M10 4 C10 12.25 10 20.5 10 29 C17.51106003 27.65562508 17.51106003 27.65562508 22 23 C22.6705842 19.64180423 22.6705842 19.64180423 22.5625 16 C22.59537109 14.1746875 22.59537109 14.1746875 22.62890625 12.3125 C22.27349311 8.90233455 22.27349311 8.90233455 19.90234375 6.625 C16.52050493 4.50266117 16.52050493 4.50266117 10 4 Z " fill="#8F8F8F" transform="translate(395,242)"/>
<path d="M0 0 C1 1 1 1 1.0625 4.5625 C1.041875 5.696875 1.02125 6.83125 1 8 C-0.32 8.33 -1.64 8.66 -3 9 C-3.66 7.02 -4.32 5.04 -5 3 C-6.98 3.33 -8.96 3.66 -11 4 C-12.33333333 7 -12.33333333 7 -11 10 C-8.77925912 11.35746273 -8.77925912 11.35746273 -6.125 12.5 C-0.03175025 15.27127394 -0.03175025 15.27127394 2 18 C2.85511002 22.18310576 2.70967719 25.86451649 0.4375 29.5 C-5.16418657 32.94719174 -11.76500032 32.20418449 -18 31 C-19 30 -19 30 -19.09765625 28.15234375 C-19.06510417 26.1015625 -19.03255208 24.05078125 -19 22 C-17.125 21.375 -17.125 21.375 -15 21 C-12.8614515 23.1385485 -12.57344937 24.13275314 -12 27 C-8.535 26.505 -8.535 26.505 -5 26 C-4.67 24.68 -4.34 23.36 -4 22 C-4.75925781 21.60167969 -5.51851563 21.20335937 -6.30078125 20.79296875 C-7.29464844 20.26316406 -8.28851563 19.73335938 -9.3125 19.1875 C-10.29863281 18.66542969 -11.28476562 18.14335937 -12.30078125 17.60546875 C-15.57164684 15.65999008 -17.54207358 14.30332905 -18.8125 10.6875 C-19.05370755 7.23019185 -18.49526698 5.12646733 -17 2 C-10.97804525 -2.59570231 -6.89915654 -2.03581668 0 0 Z " fill="#7F7F7F" transform="translate(497,243)"/>
<path d="M0 0 C1.299375 -0.02126953 1.299375 -0.02126953 2.625 -0.04296875 C5 0.1875 5 0.1875 8 2.1875 C8.1875 5.8125 8.1875 5.8125 8 9.1875 C6.68 9.5175 5.36 9.8475 4 10.1875 C3.34 8.2075 2.68 6.2275 2 4.1875 C0.02 4.1875 -1.96 4.1875 -4 4.1875 C-4 6.8275 -4 9.4675 -4 12.1875 C-3.13375 12.27 -2.2675 12.3525 -1.375 12.4375 C2.5113315 13.30112922 4.85904306 14.77699816 8 17.1875 C9.15638891 19.50027781 9.19868928 20.98841221 9.25 23.5625 C9.27578125 24.33335937 9.3015625 25.10421875 9.328125 25.8984375 C8.89056789 28.95091923 8.34451552 30.14698846 6 32.1875 C3.16575672 32.51166843 0.75393796 32.61205987 -2.0625 32.5 C-3.16174805 32.48549805 -3.16174805 32.48549805 -4.28320312 32.47070312 C-9.66074425 32.35712788 -9.66074425 32.35712788 -12 31.1875 C-12 28.5475 -12 25.9075 -12 23.1875 C-10.35 23.1875 -8.7 23.1875 -7 23.1875 C-6.34 24.8375 -5.68 26.4875 -5 28.1875 C-2.08347826 28.35431109 -2.08347826 28.35431109 1 28.1875 C3.28728734 26.34866119 3.28728734 26.34866119 3.125 23.5625 C3.08375 22.77875 3.0425 21.995 3 21.1875 C2.40832031 21.02894531 1.81664062 20.87039063 1.20703125 20.70703125 C-3.99089504 19.17224388 -7.80524068 17.82505385 -11 13.1875 C-11.77880285 9.39178126 -11.55437526 6.21705406 -9.6875 2.75 C-6.75167751 0.03164584 -3.82110958 0.02843087 0 0 Z " fill="#7E7E7E" transform="translate(467,241.8125)"/>
<path d="M0 0 C0.99 0.66 1.98 1.32 3 2 C2.21625 2.0825 1.4325 2.165 0.625 2.25 C-2.14749104 2.72806339 -2.14749104 2.72806339 -3.3125 5.0625 C-3.539375 5.701875 -3.76625 6.34125 -4 7 C-4.33 6.67 -4.66 6.34 -5 6 C-5.33 6.66 -5.66 7.32 -6 8 C-6.66 8 -7.32 8 -8 8 C-8.33 8.66 -8.66 9.32 -9 10 C-9.99 9.01 -10.98 8.02 -12 7 C-12.33 7.99 -12.66 8.98 -13 10 C-13.804375 10.474375 -14.60875 10.94875 -15.4375 11.4375 C-18.17342303 13.10574575 -19.05547542 13.97752135 -20 17 C-19.67 17.99 -19.34 18.98 -19 20 C-18.13375 19.7834375 -18.13375 19.7834375 -17.25 19.5625 C-15.16666667 19.04166667 -13.08333333 18.52083333 -11 18 C-11 18.66 -11 19.32 -11 20 C-10.34 19.67 -9.68 19.34 -9 19 C-4.01551654 18.79231319 0.81209483 19.22743917 5.765625 19.78125 C8.12344463 20.04871813 8.12344463 20.04871813 11 20 C11.495 23.465 11.495 23.465 12 27 C12.66 27 13.32 27 14 27 C14.495 28.98 14.495 28.98 15 31 C12.86348554 30.04225214 11.23511904 29.25043841 9.62109375 27.53125 C5.7176027 23.84409701 -0.27574453 22.81747257 -5.5 22.625 C-9.62521402 22.76202634 -13.14453574 23.83229881 -16.98828125 25.28125 C-19 26 -19 26 -21.9375 26.4375 C-24.14427787 26.7852148 -24.14427787 26.7852148 -25.0625 28.75 C-25.5265625 29.86375 -25.5265625 29.86375 -26 31 C-27.9375 33.75 -27.9375 33.75 -30 36 C-30.99 36 -31.98 36 -33 36 C-31.82911782 24.35046335 -25.50773633 13.88011644 -17 6 C-12.59315319 2.58244533 -5.72539208 -2.65821775 0 0 Z " fill="#24A3B6" transform="translate(291,134)"/>
<path d="M0 0 C0.94101562 0.00644531 1.88203125 0.01289063 2.8515625 0.01953125 C5.375 0.1875 5.375 0.1875 8.375 1.1875 C8.375 4.1575 8.375 7.1275 8.375 10.1875 C7.055 9.8575 5.735 9.5275 4.375 9.1875 C4.045 7.8675 3.715 6.5475 3.375 5.1875 C-1.06143516 4.75255538 -2.95363378 4.64748804 -6.5 7.5 C-9.81287633 11.68981419 -9.98623597 14.94957838 -9.625 20.1875 C-8.21740659 22.95191969 -8.21740659 22.95191969 -6.625 25.1875 C-6.625 25.8475 -6.625 26.5075 -6.625 27.1875 C-5.16682203 27.35552051 -3.7084516 27.52187143 -2.25 27.6875 C-1.03183594 27.82671875 -1.03183594 27.82671875 0.2109375 27.96875 C2.34412825 28.22102351 2.34412825 28.22102351 4.375 28.1875 C4.705 26.5375 5.035 24.8875 5.375 23.1875 C6.695 23.1875 8.015 23.1875 9.375 23.1875 C9.375 25.8275 9.375 28.4675 9.375 31.1875 C3.2746651 33.49207096 -2.24748131 33.66662331 -8.625 32.1875 C-12.22338332 30.40258764 -14.2163977 28.16621295 -15.78125 24.41796875 C-17.30536821 18.58257171 -17.26717793 11.60500543 -14.61328125 6.08203125 C-10.71313879 1.0991994 -6.07337516 -0.09202084 0 0 Z " fill="#7E7E7E" transform="translate(443.625,241.8125)"/>
<path d="M0 0 C1.12019531 -0.00128906 2.24039063 -0.00257813 3.39453125 -0.00390625 C4.57402344 -0.00003906 5.75351563 0.00382813 6.96875 0.0078125 C8.73798828 0.00201172 8.73798828 0.00201172 10.54296875 -0.00390625 C12.22326172 -0.00197266 12.22326172 -0.00197266 13.9375 0 C14.97326172 0.00112793 16.00902344 0.00225586 17.07617188 0.00341797 C19.46875 0.1328125 19.46875 0.1328125 20.46875 1.1328125 C20.54054964 2.65209288 20.55267007 4.17448732 20.53125 5.6953125 C20.52222656 6.52160156 20.51320312 7.34789062 20.50390625 8.19921875 C20.49230469 8.83730469 20.48070312 9.47539062 20.46875 10.1328125 C19.14875 10.1328125 17.82875 10.1328125 16.46875 10.1328125 C16.1284375 8.92625 16.1284375 8.92625 15.78125 7.6953125 C15.348125 6.8496875 14.915 6.0040625 14.46875 5.1328125 C11.99375 4.6378125 11.99375 4.6378125 9.46875 4.1328125 C9.46875 12.0528125 9.46875 19.9728125 9.46875 28.1328125 C11.11875 28.4628125 12.76875 28.7928125 14.46875 29.1328125 C14.46875 30.1228125 14.46875 31.1128125 14.46875 32.1328125 C9.51875 32.1328125 4.56875 32.1328125 -0.53125 32.1328125 C-0.53125 31.1428125 -0.53125 30.1528125 -0.53125 29.1328125 C0.78875 29.1328125 2.10875 29.1328125 3.46875 29.1328125 C3.46875 21.2128125 3.46875 13.2928125 3.46875 5.1328125 C1.81875 4.8028125 0.16875 4.4728125 -1.53125 4.1328125 C-1.53125 5.7828125 -1.53125 7.4328125 -1.53125 9.1328125 C-3.18125 9.4628125 -4.83125 9.7928125 -6.53125 10.1328125 C-6.55814216 8.65374358 -6.57759621 7.17453767 -6.59375 5.6953125 C-6.60535156 4.87160156 -6.61695313 4.04789063 -6.62890625 3.19921875 C-6.42945049 -1.02126516 -3.57295503 0.0038909 0 0 Z " fill="#8D8D8D" transform="translate(213.53125,241.8671875)"/>
<path d="M0 0 C4.29 0 8.58 0 13 0 C13.33 1.32 13.66 2.64 14 4 C12.68 4 11.36 4 10 4 C10 11.92 10 19.84 10 28 C12.97 28 15.94 28 19 28 C19.33 26.02 19.66 24.04 20 22 C21.32 22 22.64 22 24 22 C24.02689216 23.47906892 24.04634621 24.95827483 24.0625 26.4375 C24.07410156 27.26121094 24.08570313 28.08492188 24.09765625 28.93359375 C24 31 24 31 23 32 C21.21928754 32.08726223 19.4351686 32.10699041 17.65234375 32.09765625 C16.57275391 32.09443359 15.49316406 32.09121094 14.38085938 32.08789062 C13.24455078 32.07951172 12.10824219 32.07113281 10.9375 32.0625 C9.79732422 32.05798828 8.65714844 32.05347656 7.48242188 32.04882812 C4.65489649 32.03699747 1.8274736 32.0205141 -1 32 C-1 31.01 -1 30.02 -1 29 C0.32 28.34 1.64 27.68 3 27 C3 19.74 3 12.48 3 5 C1.68 4.67 0.36 4.34 -1 4 C-0.67 2.68 -0.34 1.36 0 0 Z " fill="#959595" transform="translate(279,242)"/>
<path d="M0 0 C4.29 0 8.58 0 13 0 C13.33 1.32 13.66 2.64 14 4 C12.68 4 11.36 4 10 4 C10.33 11.92 10.66 19.84 11 28 C11.99 28.33 12.98 28.66 14 29 C14 29.99 14 30.98 14 32 C4.43 32 -5.14 32 -15 32 C-15 31.01 -15 30.02 -15 29 C-13.35 28.67 -11.7 28.34 -10 28 C-10 27.34 -10 26.68 -10 26 C-9.01 26 -8.02 26 -7 26 C-6.67 24.68 -6.34 23.36 -6 22 C-5.67 23.98 -5.34 25.96 -5 28 C-2.36 28 0.28 28 3 28 C3.33 20.08 3.66 12.16 4 4 C2.68 4 1.36 4 0 4 C0 2.68 0 1.36 0 0 Z " fill="#858585" transform="translate(262,242)"/>
<path d="M0 0 C0 10.68248242 -6.20588497 20.06190667 -13 28 C-17.54054054 32 -17.54054054 32 -20 32 C-20 31.34 -20 30.68 -20 30 C-19.34 30 -18.68 30 -18 30 C-18 29.01 -18 28.02 -18 27 C-17.34 27 -16.68 27 -16 27 C-15.13866499 23.55465996 -15.06311626 21.39620354 -16 18 C-15.67 17.34 -15.34 16.68 -15 16 C-16.59328125 16.14308594 -16.59328125 16.14308594 -18.21875 16.2890625 C-32.15671621 17.42366301 -32.15671621 17.42366301 -39 15 C-39 14.34 -39 13.68 -39 13 C-37.76765625 13.06960937 -36.5353125 13.13921875 -35.265625 13.2109375 C-25.0151255 13.61527601 -16.52924867 13.52583274 -8 7 C-6.2183446 5.0379238 -5.2188015 3.38220294 -4 1 C-2 0 -2 0 0 0 Z " fill="#17C1AF" transform="translate(401,150)"/>
<path d="M0 0 C0.66 0.33 1.32 0.66 2 1 C1.01 2.485 1.01 2.485 0 4 C-0.99 4 -1.98 4 -3 4 C-3.226875 4.61875 -3.45375 5.2375 -3.6875 5.875 C-5.38416443 8.6219805 -7.05251711 8.86635273 -10 10 C-10.33 10.99 -10.66 11.98 -11 13 C-11.99 13.495 -11.99 13.495 -13 14 C-13.33 14.99 -13.66 15.98 -14 17 C-13.01 17.33 -12.02 17.66 -11 18 C-11 18.66 -11 19.32 -11 20 C-10.01 20 -9.02 20 -8 20 C-8 19.34 -8 18.68 -8 18 C-5.4580411 17.94565884 -2.91726318 17.9061661 -0.375 17.875 C0.33785156 17.85824219 1.05070312 17.84148437 1.78515625 17.82421875 C6.2612164 17.78315398 9.77949278 18.30913433 14 20 C14 20.66 14 21.32 14 22 C16.31 22.33 18.62 22.66 21 23 C21.495 25.475 21.495 25.475 22 28 C21.195625 27.401875 20.39125 26.80375 19.5625 26.1875 C13.4990144 22.17846599 6.28720847 19.82253364 -1 21 C-7.57053139 22.72372192 -12.58161029 24.64437611 -17 30 C-18.29579647 31.36984198 -19.61992749 32.7151049 -21 34 C-21.66 34 -22.32 34 -23 34 C-24.29551321 30.08978822 -23.40683528 28.04795285 -21.59985352 24.36474609 C-21.23690186 23.66687988 -20.8739502 22.96901367 -20.5 22.25 C-20.13124756 21.53279785 -19.76249512 20.8155957 -19.38256836 20.07666016 C-14.54844244 10.94426416 -8.86880203 5.30921482 0 0 Z M-15 17 C-15 17.66 -15 18.32 -15 19 C-14.34 18.67 -13.68 18.34 -13 18 C-13.66 17.67 -14.32 17.34 -15 17 Z " fill="#1C98A4" transform="translate(329,79)"/>
<path d="M0 0 C4.29 0 8.58 0 13 0 C13.33 1.32 13.66 2.64 14 4 C12.68 4 11.36 4 10 4 C10.05187541 7.75112898 10.14695218 11.49995532 10.25 15.25 C10.26417969 16.31347656 10.27835937 17.37695312 10.29296875 18.47265625 C10.32519531 19.49746094 10.35742188 20.52226562 10.390625 21.578125 C10.41157227 22.52075195 10.43251953 23.46337891 10.45410156 24.43457031 C11.14219247 27.66822831 12.516836 28.89753013 15 31 C14 32 14 32 10.83984375 32.09765625 C9.55207031 32.08605469 8.26429688 32.07445312 6.9375 32.0625 C5.64714844 32.05347656 4.35679687 32.04445313 3.02734375 32.03515625 C2.02832031 32.02355469 1.02929688 32.01195312 0 32 C0 31.01 0 30.02 0 29 C0.99 28.67 1.98 28.34 3 28 C3.28345896 23.8974218 3.52101861 19.79345064 3.75 15.6875 C3.83121094 14.52025391 3.91242188 13.35300781 3.99609375 12.15039062 C4.05410156 11.03212891 4.11210937 9.91386719 4.171875 8.76171875 C4.2661377 7.2142395 4.2661377 7.2142395 4.36230469 5.63549805 C4.24274414 4.76578369 4.12318359 3.89606934 4 3 C2.68 2.01 1.36 1.02 0 0 Z " fill="#909090" transform="translate(345,242)"/>
<path d="M0 0 C6.34866553 0.36626917 6.34866553 0.36626917 9.3125 3.25 C12.91179417 9.11551642 13.91157739 14.13571239 13 21 C11.00342873 24.85544798 9.60292362 26.59805092 6 29 C6 28.34 6 27.68 6 27 C5.34 27 4.68 27 4 27 C4.16371094 26.32582031 4.32742188 25.65164063 4.49609375 24.95703125 C5.0875358 21.48632094 5.09539046 18.20677876 5.0625 14.6875 C5.04896484 12.80611328 5.04896484 12.80611328 5.03515625 10.88671875 C5.02355469 9.93410156 5.01195312 8.98148438 5 8 C3.9275 7.360625 2.855 6.72125 1.75 6.0625 C1.14671875 5.70285156 0.5434375 5.34320313 -0.078125 4.97265625 C-2.26485438 3.77676439 -2.26485438 3.77676439 -6 3 C-6 10.92 -6 18.84 -6 27 C-6.33 27 -6.66 27 -7 27 C-7 18.75 -7 10.5 -7 2 C-1 2 -1 2 1 3 C0.67 2.01 0.34 1.02 0 0 Z " fill="#777777" transform="translate(411,243)"/>
<path d="M0 0 C5.02072539 -1.05699482 5.02072539 -1.05699482 8 0 C10.90802029 3.71791753 12.97519248 7.7479042 15 12 C13.68 12.99 12.36 13.98 11 15 C10.34 13.02 9.68 11.04 9 9 C8.01 9 7.02 9 6 9 C6.33 14.94 6.66 20.88 7 27 C9.475 27.99 9.475 27.99 12 29 C12 29.99 12 30.98 12 32 C7.71 32 3.42 32 -1 32 C-1 31.01 -1 30.02 -1 29 C0.32 28.67 1.64 28.34 3 28 C3 20.08 3 12.16 3 4 C1.68 4 0.36 4 -1 4 C-0.67 2.68 -0.34 1.36 0 0 Z " fill="#747574" transform="translate(362,242)"/>
<path d="M0 0 C0.7425 0.24355225 1.485 0.48710449 2.25 0.73803711 C6.97936946 2.46628571 9.822424 4.51129978 13.125 8.3125 C12.465 8.6425 11.805 8.9725 11.125 9.3125 C8.5 8 8.5 8 6.125 6.3125 C6.125 5.6525 6.125 4.9925 6.125 4.3125 C-8.37483769 0.46478058 -8.37483769 0.46478058 -22.875 2.3125 C-25.8125 1.9375 -25.8125 1.9375 -27.875 1.3125 C-27.875 1.9725 -27.875 2.6325 -27.875 3.3125 C-34.805 2.8175 -34.805 2.8175 -41.875 2.3125 C-29.86004928 -5.69746715 -13.13577981 -4.323048 0 0 Z " fill="#27A8B4" transform="translate(372.875,76.6875)"/>
<path d="M0 0 C0.66 0 1.32 0 2 0 C2.42596145 5.91021507 1.25707786 9.4076958 -1.5 14.4375 C-1.83386719 15.07365234 -2.16773438 15.70980469 -2.51171875 16.36523438 C-3.32840122 17.91693107 -4.1624334 19.45947571 -5 21 C-5.66 19.68 -6.32 18.36 -7 17 C-6.34 17 -5.68 17 -5 17 C-5.66 15.68 -6.32 14.36 -7 13 C-8.97536745 13.34786708 -8.97536745 13.34786708 -11 14 C-11.33 14.66 -11.66 15.32 -12 16 C-12.99 16.33 -13.98 16.66 -15 17 C-14.67 17.66 -14.34 18.32 -14 19 C-14.76570313 18.52433594 -14.76570313 18.52433594 -15.546875 18.0390625 C-18.80214659 16.66023727 -21.72843132 16.5706427 -25.25 16.375 C-26.51328125 16.30023438 -27.7765625 16.22546875 -29.078125 16.1484375 C-30.04234375 16.09945312 -31.0065625 16.05046875 -32 16 C-32 15.34 -32 14.68 -32 14 C-31.3709375 14.02320312 -30.741875 14.04640625 -30.09375 14.0703125 C-20.66418749 14.26912858 -13.58674643 12.8696537 -6 7 C-4.1873495 4.83779383 -4.1873495 4.83779383 -3 3 C-2.34 3 -1.68 3 -1 3 C-0.67 2.01 -0.34 1.02 0 0 Z " fill="#1FC8B4" transform="translate(446,93)"/>
<path d="M0 0 C6.875 1.875 6.875 1.875 8 3 C8.35799432 6.79473981 8.56804421 9.13657281 6.4375 12.375 C0.94825973 16.03449351 -5.77411739 15.20242368 -12 14 C-13 13 -13 13 -13.09765625 11.15234375 C-13.06510417 9.1015625 -13.03255208 7.05078125 -13 5 C-11.125 4.375 -11.125 4.375 -9 4 C-6.8614515 6.1385485 -6.57344937 7.13275314 -6 10 C-2.535 9.505 -2.535 9.505 1 9 C2.0326802 6.21176345 2.04509293 5.1322726 1.0625 2.25 C0.711875 1.5075 0.36125 0.765 0 0 Z " fill="#8D8D8D" transform="translate(491,260)"/>
<path d="M0 0 C1.43859375 -0.00386719 1.43859375 -0.00386719 2.90625 -0.0078125 C5.5 0.125 5.5 0.125 8.5 1.125 C8.5 4.095 8.5 7.065 8.5 10.125 C7.18 9.795 5.86 9.465 4.5 9.125 C4.17 7.805 3.84 6.485 3.5 5.125 C0.21000718 4.70668596 0.21000718 4.70668596 -3.5 5.125 C-6.48087575 7.57594228 -8.36351998 9.92027998 -10.5 13.125 C-10.5 11.475 -10.5 9.825 -10.5 8.125 C-11.82 8.125 -13.14 8.125 -14.5 8.125 C-13.10415208 4.75170085 -11.57634389 3.08267338 -8.5 1.125 C-5.41493912 0.09664637 -3.2305728 -0.00868434 0 0 Z " fill="#6E6E6E" transform="translate(443.5,241.875)"/>
<path d="M0 0 C1.5631897 0.00785522 1.5631897 0.00785522 3.15795898 0.01586914 C4.28266602 0.0190918 5.40737305 0.02231445 6.56616211 0.02563477 C7.75016602 0.03401367 8.93416992 0.04239258 10.15405273 0.05102539 C11.34192383 0.05553711 12.52979492 0.06004883 13.75366211 0.06469727 C16.69967499 0.07652864 19.64558954 0.09301252 22.59155273 0.11352539 C22.59155273 0.44352539 22.59155273 0.77352539 22.59155273 1.11352539 C18.96155273 1.11352539 15.33155273 1.11352539 11.59155273 1.11352539 C9.68709163 4.9224476 9.31332012 6.46050388 9.17749023 10.53540039 C9.11948242 12.07260742 9.11948242 12.07260742 9.06030273 13.64086914 C9.01389648 15.23608398 9.01389648 15.23608398 8.96655273 16.86352539 C8.90854492 18.48194336 8.90854492 18.48194336 8.84936523 20.13305664 C8.75520642 22.79304314 8.66957886 25.4530248 8.59155273 28.11352539 C7.93155273 28.44352539 7.27155273 28.77352539 6.59155273 29.11352539 C6.59155273 21.19352539 6.59155273 13.27352539 6.59155273 5.11352539 C4.94155273 4.78352539 3.29155273 4.45352539 1.59155273 4.11352539 C1.59155273 5.76352539 1.59155273 7.41352539 1.59155273 9.11352539 C-0.05844727 9.44352539 -1.70844727 9.77352539 -3.40844727 10.11352539 C-3.43533943 8.63445647 -3.45479348 7.15525056 -3.47094727 5.67602539 C-3.48254883 4.85231445 -3.49415039 4.02860352 -3.50610352 3.17993164 C-3.36367472 0.16613837 -3.02118634 0.14240767 0 0 Z " fill="#5F6160" transform="translate(210.408447265625,241.886474609375)"/>
<path d="M0 0 C0.66 0.33 1.32 0.66 2 1 C1.01 2.485 1.01 2.485 0 4 C-0.99 4 -1.98 4 -3 4 C-3.226875 4.61875 -3.45375 5.2375 -3.6875 5.875 C-5.38416443 8.6219805 -7.05251711 8.86635273 -10 10 C-10.33 10.99 -10.66 11.98 -11 13 C-11.99 13.495 -11.99 13.495 -13 14 C-13.72159424 15.64363134 -14.39351421 17.31050386 -15 19 C-15.66 19 -16.32 19 -17 19 C-17.33 21.31 -17.66 23.62 -18 26 C-17.34 26 -16.68 26 -16 26 C-16.54087318 29.78611227 -18.11722332 31.55400767 -21 34 C-21.66 34 -22.32 34 -23 34 C-24.29551321 30.08978822 -23.40683528 28.04795285 -21.59985352 24.36474609 C-21.23690186 23.66687988 -20.8739502 22.96901367 -20.5 22.25 C-20.13124756 21.53279785 -19.76249512 20.8155957 -19.38256836 20.07666016 C-14.54844244 10.94426416 -8.86880203 5.30921482 0 0 Z " fill="#288893" transform="translate(329,79)"/>
<path d="M0 0 C4.29 0 8.58 0 13 0 C13 1.32 13 2.64 13 4 C12.01 4 11.02 4 10 4 C10.33 4.721875 10.66 5.44375 11 6.1875 C12.00603529 9.01697427 12.16977402 11.02895466 12 14 C11.38125 14.144375 10.7625 14.28875 10.125 14.4375 C7.96741678 14.93152225 7.96741678 14.93152225 6 16 C5.01 12.04 4.02 8.08 3 4 C2.01 4 1.02 4 0 4 C0 2.68 0 1.36 0 0 Z " fill="#747474" transform="translate(300,242)"/>
<path d="M0 0 C1.9375 0.0625 1.9375 0.0625 4 1 C5.125 4 5.125 4 6 7 C6.66 7.33 7.32 7.66 8 8 C7.85892253 9.45880109 7.71197585 10.91703551 7.5625 12.375 C7.48128906 13.18710937 7.40007812 13.99921875 7.31640625 14.8359375 C7 17 7 17 6 19 C4.68 19 3.36 19 2 19 C1.29805625 16.94237091 0.61398303 14.87863969 -0.0625 12.8125 C-0.44535156 11.66394531 -0.82820313 10.51539063 -1.22265625 9.33203125 C-1.99734328 6.01138785 -2.02698921 4.21007484 -1 1 C-0.67 0.67 -0.34 0.34 0 0 Z " fill="#898989" transform="translate(309,255)"/>
<path d="M0 0 C-3.75 2 -3.75 2 -6 2 C-6.495 0.515 -6.495 0.515 -7 -1 C-10.86368348 -3.29406207 -14.46925913 -3.14593941 -18.81640625 -2.97265625 C-21 -3 -21 -3 -22.83862305 -3.48193359 C-25.18477224 -4.04428857 -27.3564332 -4.20830149 -29.765625 -4.31640625 C-30.65507812 -4.35830078 -31.54453125 -4.40019531 -32.4609375 -4.44335938 C-33.38132812 -4.48267578 -34.30171875 -4.52199219 -35.25 -4.5625 C-36.18585938 -4.60568359 -37.12171875 -4.64886719 -38.0859375 -4.69335938 C-40.39048641 -4.7991805 -42.69513839 -4.90126557 -45 -5 C-45 -5.33 -45 -5.66 -45 -6 C-29.07819353 -9.52845894 -14.47556028 -7.53935431 0 0 Z " fill="#27898D" transform="translate(336,138)"/>
<path d="M0 0 C0.66666667 2 1.33333333 4 2 6 C3.65 6 5.3 6 7 6 C7 5.01 7 4.02 7 3 C10.3 3 13.6 3 17 3 C17 3.33 17 3.66 17 4 C8.59577465 6.91126761 8.59577465 6.91126761 5.0625 7.4375 C2.85572213 7.7852148 2.85572213 7.7852148 1.9375 9.75 C1.4734375 10.86375 1.4734375 10.86375 1 12 C-0.9375 14.75 -0.9375 14.75 -3 17 C-3.99 17 -4.98 17 -6 17 C-5.57664615 10.50857435 -3.08900201 5.66507011 0 0 Z " fill="#2A8E9E" transform="translate(264,153)"/>
<path d="M0 0 C3.63 0 7.26 0 11 0 C11.33 1.32 11.66 2.64 12 4 C10.35 4 8.7 4 7 4 C7.03480469 5.13179687 7.06960938 6.26359375 7.10546875 7.4296875 C7.13360336 8.91144353 7.16090387 10.39321556 7.1875 11.875 C7.22520508 12.99455078 7.22520508 12.99455078 7.26367188 14.13671875 C7.29296875 16.3046875 7.29296875 16.3046875 7 20 C6.01 20.66 5.02 21.32 4 22 C4 15.73 4 9.46 4 3 C2.68 3 1.36 3 0 3 C0 2.01 0 1.02 0 0 Z " fill="#858585" transform="translate(381,242)"/>
<path d="M0 0 C2.97988189 0.24161205 4.79742699 0.86860129 7.3125 2.5 C9.8126123 6.20387008 9.33395379 9.65860068 9 14 C7.35 13.67 5.7 13.34 4 13 C3.67 11.02 3.34 9.04 3 7 C1.35 6.67 -0.3 6.34 -2 6 C-1.125 1.125 -1.125 1.125 0 0 Z " fill="#858585" transform="translate(467,256)"/>
<path d="M0 0 C2.35546875 0.203125 2.35546875 0.203125 5 1 C6.36328125 3.109375 6.36328125 3.109375 7.3125 5.75 C7.63863281 6.61109375 7.96476563 7.4721875 8.30078125 8.359375 C9.00767217 11.02897424 9.13341722 13.25259347 9 16 C8.01 16 7.02 16 6 16 C5.67 17.32 5.34 18.64 5 20 C2.04816899 17.04816899 1.91336012 14.04488053 1 10 C1.66 10 2.32 10 3 10 C3.33 7.69 3.66 5.38 4 3 C2.35 3.66 0.7 4.32 -1 5 C-0.67 3.35 -0.34 1.7 0 0 Z " fill="#787878" transform="translate(244,242)"/>
<path d="M0 0 C4.29 0 8.58 0 13 0 C13.33 1.32 13.66 2.64 14 4 C8.25 5 8.25 5 6 5 C5.67 11.93 5.34 18.86 5 26 C4.67 26 4.34 26 4 26 C3.67 19.07 3.34 12.14 3 5 C1.68 4.67 0.36 4.34 -1 4 C-0.67 2.68 -0.34 1.36 0 0 Z " fill="#737474" transform="translate(279,242)"/>
<path d="M0 0 C1.8746679 -0.05460198 3.74980905 -0.09306244 5.625 -0.125 C7.19121094 -0.15980469 7.19121094 -0.15980469 8.7890625 -0.1953125 C12 0 12 0 18 2 C17.67 10.58 17.34 19.16 17 28 C16.67 28 16.34 28 16 28 C16 20.08 16 12.16 16 4 C12.37 3.67 8.74 3.34 5 3 C4.67 3.66 4.34 4.32 4 5 C2.68 4.67 1.36 4.34 0 4 C0 2.68 0 1.36 0 0 Z " fill="#656565" transform="translate(332,242)"/>
<path d="M0 0 C10.0754422 -0.60318612 19.22078658 -0.54665145 28.875 2.6875 C29.61669434 2.93129395 30.35838867 3.17508789 31.12255859 3.42626953 C35.85400984 5.15165247 38.69707872 7.19840237 42 11 C41.34 11.33 40.68 11.66 40 12 C37.375 10.6875 37.375 10.6875 35 9 C35 8.34 35 7.68 35 7 C34.13117188 6.80664062 33.26234375 6.61328125 32.3671875 6.4140625 C31.21476562 6.15367188 30.06234375 5.89328125 28.875 5.625 C27.73804688 5.36976562 26.60109375 5.11453125 25.4296875 4.8515625 C22 4 22 4 19.09375 2.9375 C15.24235148 1.77040954 11.6266063 1.54866827 7.625 1.375 C6.88894531 1.33632812 6.15289062 1.29765625 5.39453125 1.2578125 C3.59672594 1.16442002 1.79839892 1.0811629 0 1 C0 0.67 0 0.34 0 0 Z " fill="#228183" transform="translate(344,74)"/>
<path d="M0 0 C0.33 0 0.66 0 1 0 C1.33 5.94 1.66 11.88 2 18 C4.475 18.99 4.475 18.99 7 20 C7 20.99 7 21.98 7 23 C3.37 23 -0.26 23 -4 23 C-3.505 21.515 -3.505 21.515 -3 20 C-2.34 20 -1.68 20 -1 20 C-1.00523682 19.42967041 -1.01047363 18.85934082 -1.01586914 18.27172852 C-1.03658221 15.70199677 -1.0496419 13.13228253 -1.0625 10.5625 C-1.07087891 9.66466797 -1.07925781 8.76683594 -1.08789062 7.84179688 C-1.09111328 6.98779297 -1.09433594 6.13378906 -1.09765625 5.25390625 C-1.10289307 4.46314697 -1.10812988 3.6723877 -1.11352539 2.85766602 C-1 1 -1 1 0 0 Z " fill="#919191" transform="translate(367,251)"/>
<path d="M0 0 C-0.33 4.62 -0.66 9.24 -1 14 C-2.32 14.33 -3.64 14.66 -5 15 C-5 14.01 -5 13.02 -5 12 C-5.66 12 -6.32 12 -7 12 C-6.67 8.37 -6.34 4.74 -6 1 C-3 0 -3 0 0 0 Z " fill="#8A8A8A" transform="translate(434,249)"/>
<path d="M0 0 C2.31 0 4.62 0 7 0 C5.68 0.33 4.36 0.66 3 1 C2.84144531 1.97582031 2.68289063 2.95164063 2.51953125 3.95703125 C2.28621094 5.22933594 2.05289062 6.50164062 1.8125 7.8125 C1.59207031 9.07707031 1.37164062 10.34164062 1.14453125 11.64453125 C0 15 0 15 -2.61328125 16.94921875 C-3.40089844 17.29597656 -4.18851562 17.64273437 -5 18 C-4.56699236 11.18012971 -3.09212176 6.08356979 0 0 Z " fill="#848484" transform="translate(337,245)"/>
<path d="M0 0 C0 0.99 0 1.98 0 3 C-10.35868649 6.86724296 -17.30367058 8.05609412 -28 5 C-28 4.34 -28 3.68 -28 3 C-26.06447266 3.05220703 -26.06447266 3.05220703 -24.08984375 3.10546875 C-22.37240894 3.13362342 -20.65495993 3.16092177 -18.9375 3.1875 C-18.08994141 3.21263672 -17.24238281 3.23777344 -16.36914062 3.26367188 C-10.38913422 3.33293836 -5.41199295 0 0 0 Z " fill="#29B2A6" transform="translate(390,160)"/>
<path d="M0 0 C1.32 0 2.64 0 4 0 C4.02689216 1.47906892 4.04634621 2.95827483 4.0625 4.4375 C4.07410156 5.26121094 4.08570313 6.08492188 4.09765625 6.93359375 C4 9 4 9 3 10 C1.21928754 10.08726223 -0.5648314 10.10699041 -2.34765625 10.09765625 C-3.42724609 10.09443359 -4.50683594 10.09121094 -5.61914062 10.08789062 C-6.75544922 10.07951172 -7.89175781 10.07113281 -9.0625 10.0625 C-10.20267578 10.05798828 -11.34285156 10.05347656 -12.51757812 10.04882812 C-15.34510351 10.03699747 -18.1725264 10.0205141 -21 10 C-21 9.01 -21 8.02 -21 7 C-19.35 6.34 -17.7 5.68 -16 5 C-16.33 5.99 -16.66 6.98 -17 8 C-11.72 8 -6.44 8 -1 8 C0.16169042 4.0404226 0.16169042 4.0404226 0 0 Z " fill="#878787" transform="translate(299,264)"/>
<path d="M0 0 C2 2 2 2 2 5 C1.34 5 0.68 5 0 5 C0.33 6.32 0.66 7.64 1 9 C-1.64 9.66 -4.28 10.32 -7 11 C-7.144375 10.21625 -7.28875 9.4325 -7.4375 8.625 C-7.87798925 6.03578982 -7.87798925 6.03578982 -9 4 C-7.68 4 -6.36 4 -5 4 C-4.67 3.01 -4.34 2.02 -4 1 C-2.0625 0.1875 -2.0625 0.1875 0 0 Z " fill="#11CBB3" transform="translate(439,105)"/>
<path d="M0 0 C0.33 2.31 0.66 4.62 1 7 C1.66 7 2.32 7 3 7 C3.33 8.32 3.66 9.64 4 11 C1.86125442 10.04125198 0.23461774 9.25056909 -1.37890625 7.52734375 C-6.33548154 2.85741378 -14.54853901 2.51202071 -21 2 C-21 1.67 -21 1.34 -21 1 C-18.81274749 0.83011631 -16.62518299 0.66424731 -14.4375 0.5 C-12.61025391 0.36078125 -12.61025391 0.36078125 -10.74609375 0.21875 C-7.15365784 0.00897272 -3.59752457 -0.03704015 0 0 Z " fill="#26A0A6" transform="translate(302,154)"/>
<path d="M0 0 C0.66 0 1.32 0 2 0 C2 0.99 2 1.98 2 3 C3.65 2.34 5.3 1.68 7 1 C10 5.75 10 5.75 10 8 C10.99 8.33 11.98 8.66 13 9 C12.0409375 9.2165625 12.0409375 9.2165625 11.0625 9.4375 C9.02454854 9.81007181 9.02454854 9.81007181 8 11 C7.01 11 6.02 11 5 11 C1.54736544 7.54736544 0.44925138 4.82945236 0 0 Z " fill="#747474" transform="translate(427,261)"/>
<path d="M0 0 C2.0625 0.6875 2.0625 0.6875 4 2 C4.75 4.125 4.75 4.125 5 6 C7.31 6 9.62 6 12 6 C12 6.66 12 7.32 12 8 C10.54263913 8.19491452 9.08405407 8.38069358 7.625 8.5625 C6.81289063 8.66691406 6.00078125 8.77132813 5.1640625 8.87890625 C3 9 3 9 1 8 C1 8.66 1 9.32 1 10 C0.01 9.67 -0.98 9.34 -2 9 C-2 6.36 -2 3.72 -2 1 C-1.34 0.67 -0.68 0.34 0 0 Z " fill="#727272" transform="translate(480,264)"/>
<path d="M0 0 C0.66 0.99 1.32 1.98 2 3 C2.99 3.33 3.98 3.66 5 4 C4.01 4.495 4.01 4.495 3 5 C2.39052886 7.73133364 2.04131589 10.46654754 1.66015625 13.23828125 C0.95786778 16.17625728 -0.03348906 17.74413868 -2 20 C-2 17.69 -2 15.38 -2 13 C-2.66 13 -3.32 13 -4 13 C-3.52343588 11.20763933 -3.04366502 9.41613103 -2.5625 7.625 C-2.29566406 6.62726563 -2.02882813 5.62953125 -1.75390625 4.6015625 C-1 2 -1 2 0 0 Z " fill="#606060" transform="translate(318,250)"/>
<path d="M0 0 C-1.75 3.875 -1.75 3.875 -4 5 C-4.268125 5.556875 -4.53625 6.11375 -4.8125 6.6875 C-6.4722782 9.91969966 -8.55235252 12.30758777 -11 15 C-11.66 15 -12.32 15 -13 15 C-13.33 15.66 -13.66 16.32 -14 17 C-14.33 16.01 -14.66 15.02 -15 14 C-12.26904287 9.34079518 -5.97312244 0 0 0 Z " fill="#268B9A" transform="translate(280,137)"/>
<path d="M0 0 C0 2.97 0 5.94 0 9 C-1.32 8.67 -2.64 8.34 -4 8 C-4 6.02 -4 4.04 -4 2 C-5.670625 2.061875 -5.670625 2.061875 -7.375 2.125 C-11 2 -11 2 -13 0 C-8.52745503 -1.49084832 -4.47254497 -1.49084832 0 0 Z " fill="#7F7F7F" transform="translate(452,243)"/>
<path d="M0 0 C0.33 0 0.66 0 1 0 C1.01401855 0.96824707 1.01401855 0.96824707 1.02832031 1.95605469 C1.08209101 4.88813944 1.1657234 7.81864008 1.25 10.75 C1.26417969 11.76578125 1.27835937 12.7815625 1.29296875 13.828125 C1.36991535 19.682146 1.36991535 19.682146 4.046875 24.703125 C4.69140625 25.13109375 5.3359375 25.5590625 6 26 C5 27 5 27 1.83984375 27.09765625 C0.55207031 27.08605469 -0.73570312 27.07445312 -2.0625 27.0625 C-3.35285156 27.05347656 -4.64320313 27.04445313 -5.97265625 27.03515625 C-6.97167969 27.02355469 -7.97070312 27.01195312 -9 27 C-9 26.01 -9 25.02 -9 24 C-8.01 24 -7.02 24 -6 24 C-6 24.66 -6 25.32 -6 26 C-3.36 26 -0.72 26 2 26 C2 25.34 2 24.68 2 24 C1.01 23.67 0.02 23.34 -1 23 C-0.67 15.41 -0.34 7.82 0 0 Z " fill="#696969" transform="translate(354,247)"/>
<path d="M0 0 C-0.8125 2.4375 -0.8125 2.4375 -2 5 C-2.99 5.33 -3.98 5.66 -5 6 C-4.67 6.66 -4.34 7.32 -4 8 C-4.51046875 7.68289062 -5.0209375 7.36578125 -5.546875 7.0390625 C-8.80214659 5.66023727 -11.72843132 5.5706427 -15.25 5.375 C-16.51328125 5.30023438 -17.7765625 5.22546875 -19.078125 5.1484375 C-20.04234375 5.09945312 -21.0065625 5.05046875 -22 5 C-22 4.34 -22 3.68 -22 3 C-21.3709375 3.02320312 -20.741875 3.04640625 -20.09375 3.0703125 C-13.01301717 3.21960506 -6.55148659 0 0 0 Z " fill="#1B9787" transform="translate(436,104)"/>
<path d="M0 0 C1.31352023 0.30818356 2.62579572 0.62167665 3.9375 0.9375 C5.03384766 1.19853516 5.03384766 1.19853516 6.15234375 1.46484375 C8 2 8 2 9 3 C9.04092937 5.33297433 9.04241723 7.66705225 9 10 C7.68 10.33 6.36 10.66 5 11 C4.71125 10.030625 4.4225 9.06125 4.125 8.0625 C3.35785318 4.89335797 3.35785318 4.89335797 1 4 C1.99 4 2.98 4 4 4 C4.33 3.34 4.66 2.68 5 2 C3.68 2.33 2.36 2.66 1 3 C0.67 2.01 0.34 1.02 0 0 Z " fill="#6B6B6B" transform="translate(489,241)"/>
<path d="M0 0 C0.33 0.66 0.66 1.32 1 2 C2.32 2 3.64 2 5 2 C5.02891949 6.29165262 5.04677118 10.58328036 5.0625 14.875 C5.07087891 16.09832031 5.07925781 17.32164062 5.08789062 18.58203125 C5.09111328 19.74863281 5.09433594 20.91523438 5.09765625 22.1171875 C5.10289307 23.19597168 5.10812988 24.27475586 5.11352539 25.38623047 C5 28 5 28 4 30 C5.65 30.33 7.3 30.66 9 31 C5.93109813 32.53445094 3.29905734 31.54984289 0 31 C0 30.01 0 29.02 0 28 C0.99 27.67 1.98 27.34 3 27 C3.33 19.08 3.66 11.16 4 3 C2.68 3 1.36 3 0 3 C0 2.01 0 1.02 0 0 Z " fill="#464646" transform="translate(394,243)"/>
<path d="M0 0 C3.96 0 7.92 0 12 0 C11.67 0.66 11.34 1.32 11 2 C8.69 2 6.38 2 4 2 C4 4.31 4 6.62 4 9 C2.68 9 1.36 9 0 9 C0 6.03 0 3.06 0 0 Z " fill="#A0A2A1" transform="translate(207,243)"/>
<path d="M0 0 C2 2 2 2 2.1953125 3.9453125 C2.13020833 5.96354167 2.06510417 7.98177083 2 10 C1.01 10 0.02 10 -1 10 C-1.33 10.66 -1.66 11.32 -2 12 C-2.66 10.35 -3.32 8.7 -4 7 C-6.97 7 -9.94 7 -13 7 C-13 6.34 -13 5.68 -13 5 C-6.565 4.505 -6.565 4.505 0 4 C0 2.68 0 1.36 0 0 Z " fill="#7C7C7C" transform="translate(253,258)"/>
<path d="M0 0 C0.33 0.99 0.66 1.98 1 3 C0.67 3.66 0.34 4.32 0 5 C1.65 5 3.3 5 5 5 C5 5.99 5 6.98 5 8 C1.04 8 -2.92 8 -7 8 C-6.67 6.68 -6.34 5.36 -6 4 C-4.35 3.67 -2.7 3.34 -1 3 C-0.67 2.01 -0.34 1.02 0 0 Z " fill="#999999" transform="translate(237,266)"/>
<path d="M0 0 C4.29 0 8.58 0 13 0 C13 0.99 13 1.98 13 3 C11.68 3 10.36 3 9 3 C9 4.65 9 6.3 9 8 C8.34 6.68 7.68 5.36 7 4 C6.67 4.33 6.34 4.66 6 5 C5.34 5 4.68 5 4 5 C4 4.34 4 3.68 4 3 C2.68 3 1.36 3 0 3 C0 2.01 0 1.02 0 0 Z " fill="#838383" transform="translate(300,242)"/>
<path d="M0 0 C0.33 0.66 0.66 1.32 1 2 C0.67 2.99 0.34 3.98 0 5 C1.32 5 2.64 5 4 5 C4.66 6.32 5.32 7.64 6 9 C5.01 9 4.02 9 3 9 C3.57344937 11.86724686 3.8614515 12.8614515 6 15 C2.74488211 14.43877278 1.00159929 13.66879905 -1 11 C-2.47940089 6.78939746 -1.61061919 4.07391912 0 0 Z " fill="#717171" transform="translate(480,245)"/>
<path d="M0 0 C1.60379341 -0.05416188 3.20811406 -0.09286638 4.8125 -0.125 C5.70582031 -0.14820313 6.59914063 -0.17140625 7.51953125 -0.1953125 C10 0 10 0 13 2 C13.1875 5.625 13.1875 5.625 13 9 C11.68 9.33 10.36 9.66 9 10 C8.08107884 6.32431536 8.04095144 4.83619425 9 1 C6.03 1 3.06 1 0 1 C0 0.67 0 0.34 0 0 Z " fill="#6F6F6F" transform="translate(462,242)"/>
<path d="M0 0 C4.75 0.75 4.75 0.75 7 3 C7 3.99 7 4.98 7 6 C8.98 5.34 10.96 4.68 13 4 C13.66 6.31 14.32 8.62 15 11 C9.47736194 9.61934049 5.12593198 6.86990756 1 3 C0.67 2.01 0.34 1.02 0 0 Z " fill="#218A87" transform="translate(313,172)"/>
<path d="M0 0 C0.66 0 1.32 0 2 0 C2.36923077 6.4 2.36923077 6.4 0.5 9.4375 C0.005 9.953125 -0.49 10.46875 -1 11 C-1 10.01 -1 9.02 -1 8 C-2.97536745 8.34786708 -2.97536745 8.34786708 -5 9 C-5.33 9.66 -5.66 10.32 -6 11 C-7.32 10.67 -8.64 10.34 -10 10 C-8.47005208 8.76302083 -6.94010417 7.52604167 -5.41015625 6.2890625 C-3.86733563 5.0333609 -3.86733563 5.0333609 -3 3 C-2.34 3 -1.68 3 -1 3 C-0.67 2.01 -0.34 1.02 0 0 Z " fill="#237F72" transform="translate(446,93)"/>
<path d="M0 0 C0 0.66 0 1.32 0 2 C-0.66 2 -1.32 2 -2 2 C-2.2578125 2.59296875 -2.515625 3.1859375 -2.78125 3.796875 C-4.09769895 6.17660965 -5.42580782 7.50978792 -7.5 9.25 C-8.1084375 9.77078125 -8.716875 10.2915625 -9.34375 10.828125 C-11 12 -11 12 -13 12 C-13 11.34 -13 10.68 -13 10 C-12.34 9.67 -11.68 9.34 -11 9 C-11 8.01 -11 7.02 -11 6 C-10.01 6 -9.02 6 -8 6 C-8 5.34 -8 4.68 -8 4 C-7.01 4 -6.02 4 -5 4 C-5.33 3.01 -5.66 2.02 -6 1 C-4 0 -4 0 0 0 Z " fill="#1FA08E" transform="translate(440,114)"/>
<path d="M0 0 C2.27113803 0.14100857 4.54190725 0.28796755 6.8125 0.4375 C8.07707031 0.51871094 9.34164063 0.59992188 10.64453125 0.68359375 C14 1 14 1 17 2 C16.67 2.66 16.34 3.32 16 4 C11.07960114 5.32010701 6.91656081 5.06525484 2 4 C0.765625 1.94921875 0.765625 1.94921875 0 0 Z " fill="#8F8F8F" transform="translate(433,270)"/>
<path d="M0 0 C0.33 0.99 0.66 1.98 1 3 C0.67 3.33 0.34 3.66 0 4 C1.98 4 3.96 4 6 4 C6.33 3.34 6.66 2.68 7 2 C7.99 2.33 8.98 2.66 10 3 C10 3.99 10 4.98 10 6 C7.39555652 6.05394705 4.79223002 6.09364469 2.1875 6.125 C1.44951172 6.14175781 0.71152344 6.15851563 -0.04882812 6.17578125 C-3.91246426 6.21074628 -5.70903668 6.19397555 -9 4 C-7 2 -7 2 -3.875 1.875 C-2.92625 1.91625 -1.9775 1.9575 -1 2 C-0.67 1.34 -0.34 0.68 0 0 Z " fill="#707070" transform="translate(266,268)"/>
<path d="M0 0 C1.258125 0.01417969 2.51625 0.02835937 3.8125 0.04296875 C5.070625 0.04941406 6.32875 0.05585937 7.625 0.0625 C10.8125 0.23046875 10.8125 0.23046875 12.8125 1.23046875 C12.8125 1.89046875 12.8125 2.55046875 12.8125 3.23046875 C15.1225 3.56046875 17.4325 3.89046875 19.8125 4.23046875 C20.1425 5.88046875 20.4725 7.53046875 20.8125 9.23046875 C20.008125 8.63234375 19.20375 8.03421875 18.375 7.41796875 C10.889687 2.50354596 3.61219979 1.78637175 -5.1875 2.23046875 C-3.1875 0.23046875 -3.1875 0.23046875 0 0 Z " fill="#1C6E72" transform="translate(330.1875,97.76953125)"/>
<path d="M0 0 C4.95 0 9.9 0 15 0 C15 0.33 15 0.66 15 1 C13.6696875 1.0928125 13.6696875 1.0928125 12.3125 1.1875 C8.25918008 2.18171055 6.70168251 3.90101124 4 7 C4 5.68 4 4.36 4 3 C2.68 3 1.36 3 0 3 C0 2.01 0 1.02 0 0 Z " fill="#797D7B" transform="translate(395,242)"/>
<path d="M0 0 C-0.33 2.97 -0.66 5.94 -1 9 C-1.66 8.01 -2.32 7.02 -3 6 C-3.763125 6.680625 -4.52625 7.36125 -5.3125 8.0625 C-6.199375 8.701875 -7.08625 9.34125 -8 10 C-8.99 9.67 -9.98 9.34 -11 9 C-9.33333333 7.33333333 -7.66666667 5.66666667 -6 4 C-5.278125 3.236875 -4.55625 2.47375 -3.8125 1.6875 C-2 0 -2 0 0 0 Z " fill="#2A7F77" transform="translate(401,150)"/>
<path d="M0 0 C0.33 0 0.66 0 1 0 C1 1.65 1 3.3 1 5 C0.34 5 -0.32 5 -1 5 C-0.01 5.99 0.98 6.98 2 8 C1.1875 9.9375 1.1875 9.9375 0 12 C-0.99 12.33 -1.98 12.66 -3 13 C-3.93045933 10.44855176 -4.08564091 9.25993522 -3.22265625 6.640625 C-2.83980469 5.85171875 -2.45695312 5.0628125 -2.0625 4.25 C-1.68222656 3.45078125 -1.30195313 2.6515625 -0.91015625 1.828125 C-0.60980469 1.22484375 -0.30945313 0.6215625 0 0 Z " fill="#267074" transform="translate(309,100)"/>
<path d="M0 0 C0.66 0.33 1.32 0.66 2 1 C1.85892253 2.45880109 1.71197585 3.91703551 1.5625 5.375 C1.48128906 6.18710937 1.40007812 6.99921875 1.31640625 7.8359375 C1 10 1 10 0 12 C-0.99 12 -1.98 12 -3 12 C-2.69230293 10.18667846 -2.37870936 8.37435655 -2.0625 6.5625 C-1.80146484 5.04849609 -1.80146484 5.04849609 -1.53515625 3.50390625 C-1 1 -1 1 0 0 Z " fill="#939393" transform="translate(315,262)"/>
<path d="M0 0 C0 0.99 0 1.98 0 3 C-4.70461323 4.86132673 -8.8757696 5.2509496 -13.875 5.125 C-14.56335938 5.11597656 -15.25171875 5.10695312 -15.9609375 5.09765625 C-17.64077838 5.07432513 -19.32043746 5.03846326 -21 5 C-21 4.67 -21 4.34 -21 4 C-20.21496094 3.96261719 -19.42992187 3.92523438 -18.62109375 3.88671875 C-12.34359483 3.49389366 -5.73896509 0 0 0 Z " fill="#168171" transform="translate(390,160)"/>
<path d="M0 0 C2.475 0.99 2.475 0.99 5 2 C4.34 3.32 3.68 4.64 3 6 C1.9790625 5.7834375 1.9790625 5.7834375 0.9375 5.5625 C-2.36273082 4.93054091 -5.67144426 4.45686059 -9 4 C-8.67 3.34 -8.34 2.68 -8 2 C-7.05125 2.04125 -6.1025 2.0825 -5.125 2.125 C-1.89755144 2.34973818 -1.89755144 2.34973818 0 0 Z " fill="#717171" transform="translate(470,268)"/>
<path d="M0 0 C0 2.64 0 5.28 0 8 C-2.97 7.505 -2.97 7.505 -6 7 C-6 5.35 -6 3.7 -6 2 C-2.25 0 -2.25 0 0 0 Z " fill="#959595" transform="translate(248,245)"/>
<path d="M0 0 C1 3 1 3 1 5 C1.66 5.33 2.32 5.66 3 6 C2.25 7.9375 2.25 7.9375 1 10 C-1.125 10.75 -1.125 10.75 -3 11 C-2.53199289 6.94393835 -2.12046792 3.53411321 0 0 Z " fill="#286671" transform="translate(261,159)"/>
<path d="M0 0 C-0.020625 0.928125 -0.04125 1.85625 -0.0625 2.8125 C-0.15769604 6.02286011 -0.15769604 6.02286011 1 9 C-2 9 -2 9 -3.75 7.75 C-5 6 -5 6 -4.875 3.9375 C-3.90210009 1.78322164 -2.6781975 0 0 0 Z M-6 6 C-5.34 6.66 -4.68 7.32 -4 8 C-4.66 8 -5.32 8 -6 8 C-6 7.34 -6 6.68 -6 6 Z " fill="#1BA6B9" transform="translate(320,90)"/>
<path d="M0 0 C0.99 0.33 1.98 0.66 3 1 C3 2.32 3 3.64 3 5 C3.66 5 4.32 5 5 5 C5.33 5.99 5.66 6.98 6 8 C3.36 8 0.72 8 -2 8 C-1.34 5.36 -0.68 2.72 0 0 Z " fill="#979797" transform="translate(267,265)"/>
<path d="M0 0 C2.475 0.99 2.475 0.99 5 2 C5 2.66 5 3.32 5 4 C6.32 4.66 7.64 5.32 9 6 C8.67 6.66 8.34 7.32 8 8 C4.85808576 6.46395304 1.91403262 4.94268841 -1 3 C-0.67 2.01 -0.34 1.02 0 0 Z " fill="#239994" transform="translate(392,91)"/>
<path d="M0 0 C3.96 0 7.92 0 12 0 C12 0.33 12 0.66 12 1 C9.69 1.33 7.38 1.66 5 2 C5.33 2.99 5.66 3.98 6 5 C5.01 5.495 5.01 5.495 4 6 C4 5.34 4 4.68 4 4 C2.35 4 0.7 4 -1 4 C-0.67 2.68 -0.34 1.36 0 0 Z " fill="#6E6E6E" transform="translate(317,242)"/>
<path d="M0 0 C4.13405862 0.6079498 7.38204235 1.90962447 11 4 C11.99 5.485 11.99 5.485 13 7 C12.01 7.495 12.01 7.495 11 8 C8.375 6.6875 8.375 6.6875 6 5 C6 4.34 6 3.68 6 3 C3.03 2.505 3.03 2.505 0 2 C0 1.34 0 0.68 0 0 Z " fill="#268E88" transform="translate(373,78)"/>
<path d="M0 0 C0.33 0.66 0.66 1.32 1 2 C1.66 2 2.32 2 3 2 C2.25 8.75 2.25 8.75 0 11 C0 9.35 0 7.7 0 6 C-0.66 7.32 -1.32 8.64 -2 10 C-3 8 -3 8 -2.44140625 6.0546875 C-2.15136719 5.33539063 -1.86132812 4.61609375 -1.5625 3.875 C-1.27503906 3.15054688 -0.98757812 2.42609375 -0.69140625 1.6796875 C-0.46324219 1.12539062 -0.23507813 0.57109375 0 0 Z " fill="#616161" transform="translate(241,250)"/>
<path d="M0 0 C0.99 0 1.98 0 3 0 C1.65365543 4.4062186 -0.19374374 6.43077702 -4 9 C-4.66 9 -5.32 9 -6 9 C-6 8.34 -6 7.68 -6 7 C-5.34 7 -4.68 7 -4 7 C-4 6.01 -4 5.02 -4 4 C-3.34 4 -2.68 4 -2 4 C-1.34 2.68 -0.68 1.36 0 0 Z " fill="#22978C" transform="translate(387,173)"/>
<path d="M0 0 C1.65 0.33 3.3 0.66 5 1 C5 1.99 5 2.98 5 4 C0.05 4 -4.9 4 -10 4 C-9.67 3.01 -9.34 2.02 -9 1 C-9 1.66 -9 2.32 -9 3 C-4.545 2.505 -4.545 2.505 0 2 C0 1.34 0 0.68 0 0 Z " fill="#747474" transform="translate(223,270)"/>
<path d="M0 0 C1.65 0.33 3.3 0.66 5 1 C5.33 2.98 5.66 4.96 6 7 C5.01 7.33 4.02 7.66 3 8 C3.33 6.35 3.66 4.7 4 3 C2.35 3.66 0.7 4.32 -1 5 C-0.67 3.35 -0.34 1.7 0 0 Z " fill="#6F6F6F" transform="translate(244,242)"/>
<path d="M0 0 C0.33 2.31 0.66 4.62 1 7 C-0.32 7.33 -1.64 7.66 -3 8 C-3 7.01 -3 6.02 -3 5 C-3.66 5 -4.32 5 -5 5 C-4.6875 3.0625 -4.6875 3.0625 -4 1 C-1 0 -1 0 0 0 Z " fill="#9B9B9B" transform="translate(432,256)"/>
<path d="M0 0 C1.98 0 3.96 0 6 0 C5.67 1.98 5.34 3.96 5 6 C2.525 5.01 2.525 5.01 0 4 C0 2.68 0 1.36 0 0 Z " fill="#8D8D8D" transform="translate(483,254)"/>
<path d="M0 0 C0.66 0.99 1.32 1.98 2 3 C2.99 3.33 3.98 3.66 5 4 C4.01 4.495 4.01 4.495 3 5 C3 5.99 3 6.98 3 8 C1.68 8.33 0.36 8.66 -1 9 C-1.125 2.25 -1.125 2.25 0 0 Z " fill="#757575" transform="translate(318,250)"/>
<path d="M0 0 C0.99 0.495 0.99 0.495 2 1 C1.01 1.495 1.01 1.495 0 2 C0 1.34 0 0.68 0 0 Z M-11 2 C-7.37 2 -3.74 2 0 2 C0.33 2.66 0.66 3.32 1 4 C-3.25566547 5.16063604 -6.6835078 4.76173392 -11 4 C-11 3.34 -11 2.68 -11 2 Z " fill="#9B9B9B" transform="translate(492,270)"/>
<path d="M0 0 C4.29 0 8.58 0 13 0 C13.33 1.32 13.66 2.64 14 4 C12.35 4 10.7 4 9 4 C9 3.34 9 2.68 9 2 C6.03 1.67 3.06 1.34 0 1 C0 0.67 0 0.34 0 0 Z " fill="#5C5D5D" transform="translate(279,242)"/>
<path d="M0 0 C2.27057377 -0.05398987 4.54151288 -0.09278742 6.8125 -0.125 C8.07707031 -0.14820313 9.34164063 -0.17140625 10.64453125 -0.1953125 C14 0 14 0 17 2 C17 2.66 17 3.32 17 4 C15.865625 3.690625 14.73125 3.38125 13.5625 3.0625 C9.07538586 1.93068767 4.60292653 1.40488706 0 1 C0 0.67 0 0.34 0 0 Z " fill="#1A676B" transform="translate(281,155)"/>
<path d="M0 0 C0.99 0.66 1.98 1.32 3 2 C-1.62 2.33 -6.24 2.66 -11 3 C-4.1122449 -1.59183673 -4.1122449 -1.59183673 0 0 Z " fill="#258691" transform="translate(291,134)"/>
<path d="M0 0 C-1.17578125 1.984375 -1.17578125 1.984375 -3 4 C-5.48046875 4.390625 -5.48046875 4.390625 -8.1875 4.25 C-9.53908203 4.19585937 -9.53908203 4.19585937 -10.91796875 4.140625 C-11.60503906 4.09421875 -12.29210937 4.0478125 -13 4 C-8.62615587 1.08410391 -5.29457529 -0.30254716 0 0 Z " fill="#2A8992" transform="translate(344,75)"/>
<path d="M0 0 C2.34058637 2.12780579 3.70700306 4.11562221 5 7 C3.68 7.99 2.36 8.98 1 10 C0 3.375 0 3.375 0 0 Z " fill="#909090" transform="translate(372,247)"/>
<path d="M0 0 C1.485 0.99 1.485 0.99 3 2 C3.6875 5.625 3.6875 5.625 4 9 C2.68 9 1.36 9 0 9 C0 6.03 0 3.06 0 0 Z " fill="#8E8E8E" transform="translate(207,243)"/>
<path d="M0 0 C0.763125 0.0825 1.52625 0.165 2.3125 0.25 C1.9825 1.24 1.6525 2.23 1.3125 3.25 C0.6525 3.25 -0.0075 3.25 -0.6875 3.25 C-0.6875 3.91 -0.6875 4.57 -0.6875 5.25 C-2.3375 4.92 -3.9875 4.59 -5.6875 4.25 C-3.34903846 0.31153846 -3.34903846 0.31153846 0 0 Z " fill="#16CBB1" transform="translate(427.6875,120.75)"/>
<path d="M0 0 C0.66 0 1.32 0 2 0 C2.33 0.99 2.66 1.98 3 3 C3.66 3.33 4.32 3.66 5 4 C4.67 4.99 4.34 5.98 4 7 C3.01 7.33 2.02 7.66 1 8 C0.34 7.67 -0.32 7.34 -1 7 C-0.67 4.69 -0.34 2.38 0 0 Z " fill="#25A0B1" transform="translate(312,98)"/>
<path d="M0 0 C3.1875 0.875 3.1875 0.875 6 2 C5.67 3.65 5.34 5.3 5 7 C2.28775382 5.38731308 -0.37352812 3.75098126 -3 2 C-2.01 1.34 -1.02 0.68 0 0 Z " fill="#1EAEB3" transform="translate(346,98)"/>
<path d="M0 0 C0 0.99 0 1.98 0 3 C2.97 3.33 5.94 3.66 9 4 C9 4.33 9 4.66 9 5 C4.71 5 0.42 5 -4 5 C-4 4.01 -4 3.02 -4 2 C-2.68 1.34 -1.36 0.68 0 0 Z " fill="#747474" transform="translate(282,269)"/>
<path d="M0 0 C0 0.99 0 1.98 0 3 C2.64 3.33 5.28 3.66 8 4 C8 4.33 8 4.66 8 5 C4.04 5 0.08 5 -4 5 C-3.67 3.68 -3.34 2.36 -3 1 C-2.01 0.67 -1.02 0.34 0 0 Z " fill="#767676" transform="translate(234,269)"/>
<path d="M0 0 C1.41687119 4.25061356 0.19320039 6.71851625 -1 11 C-1.33 11 -1.66 11 -2 11 C-2 8.36 -2 5.72 -2 3 C-2.99 3 -3.98 3 -5 3 C-5 2.34 -5 1.68 -5 1 C-3.35 0.67 -1.7 0.34 0 0 Z " fill="#535353" transform="translate(335,261)"/>
<path d="M0 0 C0.99 0 1.98 0 3 0 C3 1.32 3 2.64 3 4 C0.47524538 5.26237731 -1.31200466 5.09856404 -4.125 5.0625 C-5.03507813 5.05347656 -5.94515625 5.04445313 -6.8828125 5.03515625 C-7.58148438 5.02355469 -8.28015625 5.01195312 -9 5 C-9 4.67 -9 4.34 -9 4 C-6.36 3.67 -3.72 3.34 -1 3 C-0.67 2.01 -0.34 1.02 0 0 Z " fill="#9C9C9C" transform="translate(250,258)"/>
<path d="M0 0 C0.99 0 1.98 0 3 0 C2.34 1.32 1.68 2.64 1 4 C-1.64 3.67 -4.28 3.34 -7 3 C-7 4.65 -7 6.3 -7 8 C-7.33 8 -7.66 8 -8 8 C-8 6.02 -8 4.04 -8 2 C-6.865625 1.855625 -5.73125 1.71125 -4.5625 1.5625 C-1.19222799 1.38828522 -1.19222799 1.38828522 0 0 Z " fill="#7F8080" transform="translate(219,243)"/>
<path d="M0 0 C1 3 1 3 0.22265625 4.82421875 C-0.8515625 6.54947917 -1.92578125 8.27473958 -3 10 C-3.33 10 -3.66 10 -4 10 C-4 7.69 -4 5.38 -4 3 C-2.68 2.67 -1.36 2.34 0 2 C0 1.34 0 0.68 0 0 Z " fill="#209E8E" transform="translate(397,160)"/>
<path d="M0 0 C0 1.65 0 3.3 0 5 C-0.66 5 -1.32 5 -2 5 C-2 5.66 -2 6.32 -2 7 C-2.66 7 -3.32 7 -4 7 C-4 6.34 -4 5.68 -4 5 C-4.66 4.67 -5.32 4.34 -6 4 C-1.125 0 -1.125 0 0 0 Z " fill="#24C0AE" transform="translate(399,155)"/>
<path d="M0 0 C0.33 0.66 0.66 1.32 1 2 C0.22265625 3.9453125 0.22265625 3.9453125 -0.9375 6.125 C-1.31777344 6.84945312 -1.69804687 7.57390625 -2.08984375 8.3203125 C-2.39019531 8.87460938 -2.69054687 9.42890625 -3 10 C-3.66 8.68 -4.32 7.36 -5 6 C-4.34 6 -3.68 6 -3 6 C-3 4.68 -3 3.36 -3 2 C-2.01 1.34 -1.02 0.68 0 0 Z " fill="#22A58F" transform="translate(444,104)"/>
<path d="M0 0 C1.98567708 0.5859375 3.97135417 1.171875 5.95703125 1.7578125 C5.29703125 2.4178125 4.63703125 3.0778125 3.95703125 3.7578125 C1.79296875 3.515625 1.79296875 3.515625 -0.66796875 2.8828125 C-1.48523438 2.67914063 -2.3025 2.47546875 -3.14453125 2.265625 C-3.77101563 2.09804687 -4.3975 1.93046875 -5.04296875 1.7578125 C-2.04296875 -0.2421875 -2.04296875 -0.2421875 0 0 Z " fill="#A0A0A0" transform="translate(444.04296875,242.2421875)"/>
<path d="M0 0 C1.32 0.33 2.64 0.66 4 1 C4 1.99 4 2.98 4 4 C0.04 4 -3.92 4 -8 4 C-8 3.67 -8 3.34 -8 3 C-5.36 2.67 -2.72 2.34 0 2 C0 1.34 0 0.68 0 0 Z " fill="#7D7D7D" transform="translate(272,270)"/>
<path d="M0 0 C2.97 0.495 2.97 0.495 6 1 C6.33 2.65 6.66 4.3 7 6 C4.50638429 4.79618552 2.31856917 3.54571278 0 2 C0 1.34 0 0.68 0 0 Z " fill="#219394" transform="translate(306,165)"/>
<path d="M0 0 C3.23356015 1.21258505 4.00856305 2.01284458 6 5 C5.01 5.495 5.01 5.495 4 6 C4 5.34 4 4.68 4 4 C1.03 3.505 1.03 3.505 -2 3 C-2 2.34 -2 1.68 -2 1 C-1.34 0.67 -0.68 0.34 0 0 Z " fill="#1E948D" transform="translate(348,150)"/>
<path d="M0 0 C4.35535069 1.16142685 6.64619703 2.07699505 9 6 C5.32579134 5.69381595 4.21864487 5.24228216 1.6875 2.4375 C1.130625 1.633125 0.57375 0.82875 0 0 Z " fill="#207A7A" transform="translate(351,107)"/>
<path d="M0 0 C2.88437779 1.29299694 4.87219421 2.65941363 7 5 C5.02 5.33 3.04 5.66 1 6 C0.67 4.02 0.34 2.04 0 0 Z " fill="#208B84" transform="translate(401,99)"/>
<path d="M0 0 C0.66 0 1.32 0 2 0 C1.67 1.65 1.34 3.3 1 5 C0.34 5 -0.32 5 -1 5 C-1.33 6.32 -1.66 7.64 -2 9 C-2.6875 7.3125 -2.6875 7.3125 -3 5 C-1.6875 2.25 -1.6875 2.25 0 0 Z " fill="#318C9C" transform="translate(313,93)"/>
<path d="M0 0 C4.95 0 9.9 0 15 0 C15 0.33 15 0.66 15 1 C13.98679687 1.09087891 13.98679687 1.09087891 12.953125 1.18359375 C12.06109375 1.26738281 11.1690625 1.35117188 10.25 1.4375 C9.36828125 1.51871094 8.4865625 1.59992188 7.578125 1.68359375 C5.30649548 1.96238465 3.20148177 2.38790577 1 3 C0.67 2.01 0.34 1.02 0 0 Z " fill="#2CA2B1" transform="translate(322,97)"/>
<path d="M0 0 C-0.33 0.66 -0.66 1.32 -1 2 C-4.0625 2.625 -4.0625 2.625 -7 3 C-7.33 2.01 -7.66 1.02 -8 0 C-4.71303767 -0.79953138 -3.28976808 -1.09658936 0 0 Z " fill="#999999" transform="translate(450,272)"/>
<path d="M0 0 C1.65 1.32 3.3 2.64 5 4 C4.01 4.99 3.02 5.98 2 7 C1.01 6.67 0.02 6.34 -1 6 C-1 3 -1 3 0 0 Z " fill="#757575" transform="translate(493,267)"/>
<path d="M0 0 C3.3 0 6.6 0 10 0 C10 0.33 10 0.66 10 1 C5.05 2.485 5.05 2.485 0 4 C0 2.68 0 1.36 0 0 Z " fill="#1A5768" transform="translate(271,156)"/>
<path d="M0 0 C-1.75 3.875 -1.75 3.875 -4 5 C-4.33 5.66 -4.66 6.32 -5 7 C-5.99 6.34 -6.98 5.68 -8 5 C-2.25 0 -2.25 0 0 0 Z " fill="#206C76" transform="translate(280,137)"/>
<path d="M0 0 C2.64 0 5.28 0 8 0 C7.67 0.99 7.34 1.98 7 3 C4.625 3.1875 4.625 3.1875 2 3 C1.34 2.01 0.68 1.02 0 0 Z " fill="#1DA8B8" transform="translate(301,133)"/>
<path d="M0 0 C2.31 0 4.62 0 7 0 C3.79663178 2.83374881 1.21912747 3.5205537 -3 4 C-2.01 3.67 -1.02 3.34 0 3 C0 2.01 0 1.02 0 0 Z " fill="#23978A" transform="translate(418,127)"/>
<path d="M0 0 C1.32 0 2.64 0 4 0 C4 0.66 4 1.32 4 2 C5.65 2.33 7.3 2.66 9 3 C5.93109813 4.53445094 3.29905734 3.54984289 0 3 C0 2.01 0 1.02 0 0 Z " fill="#696969" transform="translate(394,271)"/>
<path d="M0 0 C2.31 0 4.62 0 7 0 C7.33 0.99 7.66 1.98 8 3 C5.03 2.67 2.06 2.34 -1 2 C-0.67 1.34 -0.34 0.68 0 0 Z " fill="#9D9E9D" transform="translate(404,243)"/>
<path d="M0 0 C0.33 0 0.66 0 1 0 C1 2.31 1 4.62 1 7 C-0.32 7.33 -1.64 7.66 -3 8 C-3 7.01 -3 6.02 -3 5 C-2.34 4.67 -1.68 4.34 -1 4 C-0.34786708 1.97536745 -0.34786708 1.97536745 0 0 Z " fill="#686868" transform="translate(474,244)"/>
<path d="M0 0 C3.875 1.75 3.875 1.75 5 4 C2.69 4 0.38 4 -2 4 C-1.34 2.68 -0.68 1.36 0 0 Z " fill="#1E9087" transform="translate(342,144)"/>
<path d="M0 0 C4.875 2.75 4.875 2.75 6 5 C3.69 4.67 1.38 4.34 -1 4 C-0.67 2.68 -0.34 1.36 0 0 Z " fill="#248C8F" transform="translate(336,139)"/>
<path d="" fill="#000000" transform="translate(0,0)"/>
<path d="" fill="#000000" transform="translate(0,0)"/>
<path d="" fill="#000000" transform="translate(0,0)"/>
<path d="" fill="#000000" transform="translate(0,0)"/>
<path d="" fill="#000000" transform="translate(0,0)"/>
<path d="" fill="#000000" transform="translate(0,0)"/>
<path d="" fill="#000000" transform="translate(0,0)"/>
<path d="" fill="#000000" transform="translate(0,0)"/>
<path d="" fill="#000000" transform="translate(0,0)"/>
<path d="" fill="#000000" transform="translate(0,0)"/>
<path d="" fill="#000000" transform="translate(0,0)"/>
<path d="" fill="#000000" transform="translate(0,0)"/>
<path d="" fill="#000000" transform="translate(0,0)"/>
<path d="" fill="#000000" transform="translate(0,0)"/>
<path d="" fill="#000000" transform="translate(0,0)"/>
<path d="" fill="#000000" transform="translate(0,0)"/>
<path d="" fill="#000000" transform="translate(0,0)"/>
<path d="" fill="#000000" transform="translate(0,0)"/>
<path d="" fill="#000000" transform="translate(0,0)"/>
<path d="" fill="#000000" transform="translate(0,0)"/>
<path d="" fill="#000000" transform="translate(0,0)"/>
<path d="" fill="#000000" transform="translate(0,0)"/>
<path d="" fill="#000000" transform="translate(0,0)"/>
<path d="" fill="#000000" transform="translate(0,0)"/>
<path d="" fill="#000000" transform="translate(0,0)"/>
<path d="" fill="#000000" transform="translate(0,0)"/>
<path d="" fill="#000000" transform="translate(0,0)"/>
<path d="" fill="#000000" transform="translate(0,0)"/>
<path d="" fill="#000000" transform="translate(0,0)"/>
<path d="" fill="#000000" transform="translate(0,0)"/>
<path d="" fill="#000000" transform="translate(0,0)"/>
<path d="" fill="#000000" transform="translate(0,0)"/>
<path d="" fill="#000000" transform="translate(0,0)"/>
<path d="" fill="#000000" transform="translate(0,0)"/>
<path d="" fill="#000000" transform="translate(0,0)"/>
<path d="" fill="#000000" transform="translate(0,0)"/>
<path d="" fill="#000000" transform="translate(0,0)"/>
<path d="" fill="#000000" transform="translate(0,0)"/>
<path d="" fill="#000000" transform="translate(0,0)"/>
<path d="" fill="#000000" transform="translate(0,0)"/>
<path d="" fill="#000000" transform="translate(0,0)"/>
<path d="" fill="#000000" transform="translate(0,0)"/>
<path d="" fill="#000000" transform="translate(0,0)"/>
<path d="" fill="#000000" transform="translate(0,0)"/>
<path d="" fill="#000000" transform="translate(0,0)"/>
<path d="" fill="#000000" transform="translate(0,0)"/>
<path d="" fill="#000000" transform="translate(0,0)"/>
<path d="" fill="#000000" transform="translate(0,0)"/>
<path d="" fill="#000000" transform="translate(0,0)"/>
<path d="" fill="#000000" transform="translate(0,0)"/>
<path d="" fill="#000000" transform="translate(0,0)"/>
<path d="" fill="#000000" transform="translate(0,0)"/>
<path d="" fill="#000000" transform="translate(0,0)"/>
<path d="" fill="#000000" transform="translate(0,0)"/>
<path d="" fill="#000000" transform="translate(0,0)"/>
<path d="" fill="#000000" transform="translate(0,0)"/>
<path d="" fill="#000000" transform="translate(0,0)"/>
<path d="" fill="#000000" transform="translate(0,0)"/>
<path d="" fill="#000000" transform="translate(0,0)"/>
<path d="" fill="#000000" transform="translate(0,0)"/>
<path d="" fill="#000000" transform="translate(0,0)"/>
<path d="" fill="#000000" transform="translate(0,0)"/>
<path d="" fill="#000000" transform="translate(0,0)"/>
<path d="" fill="#000000" transform="translate(0,0)"/>
</svg>
