<svg width="41" height="40" viewBox="0 0 41 40" fill="none" xmlns="http://www.w3.org/2000/svg">
<g clip-path="url(#clip0_17_149)">
<path d="M0.884766 20V40H20.8848H40.8848V20V0H20.8848H0.884766V20Z" fill="#007ACC"/>
<path d="M9.73048 20.1329L9.71777 21.7708H12.3209H14.9241V29.1677V36.5646H16.7653H18.6067V29.1677V21.7708H21.2099H23.813V20.1646C23.813 19.2757 23.7939 18.5329 23.7686 18.5138C23.7495 18.4883 20.5813 18.4757 16.74 18.4819L9.74952 18.501L9.73048 20.1329Z" fill="white"/>
<path d="M33.1603 18.4545C34.176 18.7084 34.9507 19.1592 35.6618 19.8957C36.0301 20.2893 36.576 21.0068 36.6206 21.1782C36.6332 21.229 34.8935 22.3973 33.8396 23.0512C33.8015 23.0767 33.6492 22.9115 33.4778 22.6576C32.9634 21.9084 32.4237 21.5846 31.5984 21.5275C30.3856 21.445 29.6046 22.0798 29.611 23.1401C29.611 23.4512 29.6554 23.6354 29.7824 23.8893C30.0492 24.4417 30.5443 24.7718 32.0999 25.445C34.9634 26.6767 36.1889 27.4893 36.9507 28.645C37.8015 29.9339 37.992 31.9909 37.4142 33.5211C36.7793 35.1846 35.2046 36.3148 32.9889 36.6893C32.3031 36.81 30.6778 36.7909 29.9412 36.6576C28.3348 36.3718 26.811 35.5782 25.8714 34.537C25.5031 34.1306 24.7856 33.0703 24.8301 32.9942C24.8492 32.9687 25.0142 32.8671 25.1984 32.7592C25.376 32.6576 26.0492 32.2703 26.684 31.902L27.8332 31.2354L28.0745 31.5909C28.411 32.1053 29.1476 32.81 29.592 33.045C30.8682 33.7179 32.6206 33.6226 33.484 32.8481C33.8523 32.5115 34.0046 32.1623 34.0046 31.6481C34.0046 31.1846 33.9476 30.9814 33.7062 30.6321C33.3951 30.1878 32.7603 29.8132 30.9571 29.0321C28.8935 28.1434 28.0046 27.5909 27.192 26.7148C26.7221 26.2068 26.2778 25.3942 26.0935 24.7148C25.9412 24.1496 25.9031 22.7339 26.0237 22.1623C26.4492 20.1687 27.9539 18.7782 30.1253 18.3656C30.8301 18.2321 32.4682 18.2831 33.1603 18.4545Z" fill="white"/>
</g>
<defs>
<clipPath id="clip0_17_149">
<rect width="40" height="40" fill="white" transform="translate(0.884766)"/>
</clipPath>
</defs>
</svg>
